<svg xmlns="http://www.w3.org/2000/svg" fill="none" viewBox="0 0 201 201"><circle cx="100.5" cy="100.5" r="100.5" fill="#D8E6FF"/><path fill="#047AFF" d="M39.206 100.271c0 .616.132 1.216.396 1.802a4.62 4.62 0 0 0 1.142 1.494L70.1 130.066c.937.85 1.948 1.275 3.032 1.275 1.113-.029 2.05-.469 2.812-1.319.762-.878 1.084-1.86.967-2.944-.088-1.113-.571-2.065-1.45-2.856L49.05 100.271l26.41-23.95c.88-.79 1.363-1.743 1.451-2.856.117-1.113-.205-2.095-.967-2.945-.761-.85-1.699-1.274-2.812-1.274-1.084-.03-2.095.381-3.032 1.23L40.744 96.933a4.955 4.955 0 0 0-1.142 1.582 4.056 4.056 0 0 0-.396 1.757zm49.57 41.485c1.172.322 2.227.19 3.164-.396.967-.556 1.626-1.421 1.978-2.592l21.885-75.015c.322-1.055.234-2.05-.264-2.988-.469-.938-1.289-1.553-2.461-1.846-1.142-.322-2.182-.234-3.12.264-.908.468-1.553 1.377-1.934 2.724l-21.752 74.619c-.352 1.202-.337 2.286.043 3.252.41.996 1.23 1.656 2.461 1.978zm73.609-41.485c0-.615-.132-1.2-.396-1.757a4.409 4.409 0 0 0-1.098-1.582l-29.356-26.455c-.937-.85-1.963-1.26-3.076-1.23-1.084 0-2.007.424-2.769 1.273-.791.85-1.142 1.832-1.054 2.945.117 1.113.615 2.065 1.494 2.856l26.455 23.95-26.455 23.951c-.879.791-1.377 1.743-1.494 2.856-.088 1.084.263 2.066 1.054 2.944.762.85 1.685 1.29 2.769 1.319 1.113 0 2.139-.425 3.076-1.275l29.356-26.499a4.105 4.105 0 0 0 1.098-1.494 4.342 4.342 0 0 0 .396-1.802z"/></svg>