<svg xmlns="http://www.w3.org/2000/svg" fill="none" viewBox="0 0 201 201"><circle cx="100.5" cy="100.5" r="100.5" fill="#FFDEDB"/><path fill="#FF3B31" d="M124.819 78.156V61.633c0-1.172-.41-2.08-1.23-2.725-.82-.674-1.787-.893-2.901-.659l-22.587 4.922c-2.9.644-4.351 2.182-4.351 4.614l.088 48.867c.234 2.227-.674 3.545-2.725 3.955l-6.987 1.451c-4.395.937-7.647 2.504-9.756 4.702-2.11 2.197-3.164 4.951-3.164 8.261 0 3.37 1.157 6.109 3.472 8.218 2.344 2.139 5.346 3.208 9.008 3.208 1.612 0 3.34-.322 5.186-.967 1.875-.615 3.633-1.611 5.273-2.988 1.67-1.377 3.033-3.193 4.087-5.449 1.055-2.227 1.582-4.937 1.582-8.13v-40.21c0-1.142.147-1.904.44-2.285.322-.41 1.011-.733 2.065-.967l20.083-4.394c.733-.176 1.319-.513 1.758-1.011.44-.527.659-1.157.659-1.89z"/></svg>