<svg xmlns="http://www.w3.org/2000/svg" fill="none" viewBox="0 0 201 201"><circle cx="100.5" cy="100.5" r="100.5" fill="#A4E6A5" fill-opacity=".6"/><path fill="#00D959" d="M81.692 110.115l4.22-4.131-29.137-29.267c-1.582-1.611-2.373-3.237-2.373-4.878 0-1.64.791-3.267 2.373-4.878l6.197-6.24c1.552-1.582 3.164-2.359 4.834-2.33 1.699 0 3.34.792 4.922 2.374l31.376 31.333 4.395-3.912L77.342 56.81c-3.076-3.077-6.226-4.615-9.448-4.615-3.223-.029-6.343 1.465-9.36 4.483l-5.846 5.845c-2.988 3.017-4.482 6.137-4.482 9.36 0 3.193 1.538 6.328 4.614 9.404l28.872 28.828zM78.836 90.56c.322.322.703.483 1.142.483.47 0 .865-.161 1.187-.483.322-.323.483-.704.483-1.143 0-.44-.16-.82-.483-1.143L64.729 71.84c-.293-.264-.673-.396-1.142-.396-.469-.029-.864.103-1.187.396a2.075 2.075 0 0 0-.483 1.23c0 .47.161.85.483 1.143L78.836 90.56zm5.405-5.362c.323.323.718.484 1.187.484.469-.03.85-.19 1.142-.484.323-.38.484-.79.484-1.23 0-.469-.147-.85-.44-1.143L70.18 66.434a1.474 1.474 0 0 0-1.187-.44c-.44 0-.806.147-1.098.44-.323.351-.484.747-.484 1.186.03.41.19.776.484 1.099l16.347 16.48zM140.8 152.61l7.866-7.866a2.182 2.182 0 0 0 .615-1.758c-.029-.644-.263-1.303-.703-1.977l-9.184-13.711c-.997-1.465-2.3-2.315-3.912-2.549l-3.955-.615-21.313-21.314-4.087 4.702 22.852 22.764 4.921.835 8.394 11.162-3.999 3.999-11.118-8.393-.879-4.922-22.632-22.676-4.13 4.658 20.61 20.567.615 3.955c.088.791.366 1.523.835 2.197a6.19 6.19 0 0 0 1.714 1.67l13.754 9.316c.704.469 1.377.689 2.022.659.644 0 1.216-.234 1.714-.703zm-85.738-5.185c2.55 2.519 5.303 4.204 8.262 5.054 2.988.878 5.962.893 8.921.043 2.988-.82 5.728-2.49 8.218-5.009 1.611-1.612 2.988-3.311 4.13-5.098a74.141 74.141 0 0 0 3.385-5.801 280.378 280.378 0 0 1 3.91-7.031c1.524-2.607 3.443-5.537 5.757-8.789 2.315-3.281 5.23-6.973 8.746-11.074 3.515-4.131 7.851-8.775 13.007-13.93l-3.823-3.868c-5.654 5.654-10.327 10.605-14.018 14.853-3.662 4.248-6.636 7.954-8.921 11.119-2.256 3.134-4.073 5.888-5.45 8.261a292.578 292.578 0 0 0-3.603 6.372 55.615 55.615 0 0 1-3.208 5.318c-1.113 1.699-2.578 3.457-4.394 5.273-2.432 2.461-5.171 3.692-8.218 3.692-3.018.029-5.801-1.216-8.35-3.736-2.52-2.578-3.78-5.376-3.78-8.393 0-3.018 1.217-5.743 3.648-8.174 1.846-1.817 3.604-3.281 5.274-4.395a60.4 60.4 0 0 1 5.361-3.208 197.537 197.537 0 0 0 6.372-3.603c2.373-1.377 5.142-3.194 8.306-5.449 3.164-2.286 6.855-5.259 11.074-8.921 4.248-3.692 9.199-8.365 14.854-14.019l-3.824-3.823c-5.156 5.156-9.8 9.492-13.93 13.008-4.102 3.515-7.793 6.43-11.075 8.745-3.252 2.285-6.181 4.189-8.789 5.713a344.414 344.414 0 0 1-7.075 3.955 86.619 86.619 0 0 0-5.8 3.384c-1.758 1.113-3.443 2.475-5.054 4.086-2.52 2.52-4.204 5.259-5.054 8.218-.82 2.959-.806 5.933.044 8.921.879 2.988 2.578 5.757 5.098 8.306zm12.525-6.987c1.494 0 2.769-.542 3.823-1.626 1.084-1.055 1.626-2.33 1.626-3.824 0-1.494-.542-2.768-1.626-3.823-1.055-1.055-2.329-1.582-3.823-1.582-1.494 0-2.769.527-3.823 1.582-1.055 1.055-1.582 2.329-1.582 3.823 0 1.494.527 2.769 1.582 3.824 1.054 1.084 2.329 1.626 3.823 1.626zm42.143-47.725c2.52 2.52 5.333 4.424 8.438 5.713 3.135 1.289 6.343 1.977 9.624 2.065a25.27 25.27 0 0 0 9.536-1.67c3.076-1.172 5.83-2.973 8.262-5.405 2.637-2.637 4.526-5.684 5.669-9.14 1.172-3.458 1.567-7.032 1.186-10.723-.351-3.721-1.508-7.266-3.471-10.635l-4.263 4.307c1.23 2.52 1.919 5.127 2.065 7.822a19.253 19.253 0 0 1-1.142 7.734c-.879 2.461-2.271 4.644-4.175 6.548-2.49 2.461-5.391 4.072-8.701 4.834-3.281.762-6.607.674-9.976-.264-3.34-.937-6.313-2.695-8.921-5.273-2.607-2.607-4.38-5.581-5.317-8.92-.938-3.37-1.025-6.71-.264-10.02.791-3.311 2.432-6.197 4.922-8.658 2.871-2.87 6.328-4.585 10.371-5.141 4.073-.586 7.94.058 11.602 1.933l4.306-4.306c-3.339-1.963-6.855-3.12-10.546-3.472-3.692-.38-7.266.015-10.723 1.186-3.428 1.143-6.46 3.047-9.097 5.713-2.431 2.403-4.248 5.142-5.449 8.218a25.29 25.29 0 0 0-1.67 9.536c.059 3.252.733 6.446 2.022 9.58 1.289 3.106 3.193 5.918 5.712 8.438zm13.316-19.732l6.504 6.46c1.64 1.641 3.413 2.476 5.317 2.505 1.905.03 3.633-.732 5.186-2.285l9.228-9.272-3.867-3.824-8.393 8.306c-1.319 1.348-2.637 1.348-3.956 0l-5.361-5.405c-1.406-1.436-1.479-2.783-.22-4.043l8.482-8.394-3.999-3.867-9.141 9.185c-1.64 1.611-2.431 3.369-2.373 5.273.059 1.904.923 3.691 2.593 5.361z"/></svg>