<svg width="201" height="201" viewBox="0 0 201 201" fill="none" xmlns="http://www.w3.org/2000/svg">
<circle cx="100.5" cy="100.5" r="100.5" fill="#D8E6FF"/>
<path d="M39.2061 100.271C39.2061 100.887 39.3379 101.487 39.6016 102.073C39.8652 102.63 40.2461 103.128 40.7441 103.567L70.0996 130.066C71.0371 130.916 72.0479 131.341 73.1318 131.341C74.2451 131.312 75.1826 130.872 75.9443 130.022C76.7061 129.144 77.0283 128.162 76.9111 127.078C76.8232 125.965 76.3398 125.013 75.4609 124.222L49.0498 100.271L75.4609 76.3213C76.3398 75.5303 76.8232 74.5781 76.9111 73.4648C77.0283 72.3516 76.7061 71.3701 75.9443 70.5205C75.1826 69.6709 74.2451 69.2461 73.1318 69.2461C72.0479 69.2168 71.0371 69.627 70.0996 70.4766L40.7441 96.9316C40.2461 97.4004 39.8652 97.9277 39.6016 98.5137C39.3379 99.0703 39.2061 99.6562 39.2061 100.271ZM88.7764 141.756C89.9482 142.078 91.0029 141.946 91.9404 141.36C92.9072 140.804 93.5664 139.939 93.918 138.768L115.803 63.7529C116.125 62.6982 116.037 61.7021 115.539 60.7646C115.07 59.8271 114.25 59.2119 113.078 58.9189C111.936 58.5967 110.896 58.6846 109.958 59.1826C109.05 59.6514 108.405 60.5596 108.024 61.9072L86.2715 136.526C85.9199 137.728 85.9346 138.812 86.3154 139.778C86.7256 140.774 87.5459 141.434 88.7764 141.756ZM162.385 100.271C162.385 99.6562 162.253 99.0703 161.989 98.5137C161.755 97.9277 161.389 97.4004 160.891 96.9316L131.535 70.4766C130.598 69.627 129.572 69.2168 128.459 69.2461C127.375 69.2461 126.452 69.6709 125.69 70.5205C124.899 71.3701 124.548 72.3516 124.636 73.4648C124.753 74.5781 125.251 75.5303 126.13 76.3213L152.585 100.271L126.13 124.222C125.251 125.013 124.753 125.965 124.636 127.078C124.548 128.162 124.899 129.144 125.69 130.022C126.452 130.872 127.375 131.312 128.459 131.341C129.572 131.341 130.598 130.916 131.535 130.066L160.891 103.567C161.389 103.128 161.755 102.63 161.989 102.073C162.253 101.487 162.385 100.887 162.385 100.271Z" fill="#047AFF"/>
</svg>
