<svg width="201" height="201" viewBox="0 0 201 201" fill="none" xmlns="http://www.w3.org/2000/svg">
<circle cx="100.5" cy="100.5" r="100.5" fill="#FFDEDB"/>
<path d="M124.819 78.1562V61.6328C124.819 60.4609 124.409 59.5527 123.589 58.9082C122.769 58.2344 121.802 58.0146 120.688 58.249L98.1006 63.1709C95.2002 63.8154 93.75 65.3535 93.75 67.7852L93.8379 116.652C94.0723 118.879 93.1641 120.197 91.1133 120.607L84.126 122.058C79.7314 122.995 76.4795 124.562 74.3701 126.76C72.2607 128.957 71.2061 131.711 71.2061 135.021C71.2061 138.391 72.3633 141.13 74.6777 143.239C77.0215 145.378 80.0244 146.447 83.6865 146.447C85.2979 146.447 87.0264 146.125 88.8721 145.48C90.7471 144.865 92.5049 143.869 94.1455 142.492C95.8154 141.115 97.1777 139.299 98.2324 137.043C99.2871 134.816 99.8145 132.106 99.8145 128.913V88.7031C99.8145 87.5605 99.9609 86.7988 100.254 86.418C100.576 86.0078 101.265 85.6855 102.319 85.4512L122.402 81.0566C123.135 80.8809 123.721 80.5439 124.16 80.0459C124.6 79.5186 124.819 78.8887 124.819 78.1562Z" fill="#FF3B31"/>
</svg>
