<svg width="201" height="201" viewBox="0 0 201 201" fill="none" xmlns="http://www.w3.org/2000/svg">
<circle cx="100.5" cy="100.5" r="100.5" fill="#A4E6A5" fill-opacity="0.6"/>
<path d="M81.6924 110.115L85.9111 105.984L56.7754 76.7168C55.1934 75.1055 54.4023 73.4795 54.4023 71.8389C54.4023 70.1982 55.1934 68.5723 56.7754 66.9609L62.9717 60.7207C64.5244 59.1387 66.1357 58.3623 67.8057 58.3916C69.5049 58.3916 71.1455 59.1826 72.7275 60.7646L104.104 92.0977L108.499 88.1865L77.3418 56.8096C74.2656 53.7334 71.1162 52.1953 67.8936 52.1953C64.6709 52.166 61.5508 53.6602 58.5332 56.6777L52.6885 62.5225C49.7002 65.54 48.2061 68.6602 48.2061 71.8828C48.2061 75.0762 49.7441 78.2109 52.8203 81.2871L81.6924 110.115ZM78.8359 90.5596C79.1582 90.8818 79.5391 91.043 79.9785 91.043C80.4473 91.043 80.8428 90.8818 81.165 90.5596C81.4873 90.2373 81.6484 89.8564 81.6484 89.417C81.6484 88.9775 81.4873 88.5967 81.165 88.2744L64.7295 71.8389C64.4365 71.5752 64.0557 71.4434 63.5869 71.4434C63.1182 71.4141 62.7227 71.5459 62.4004 71.8389C62.1074 72.1904 61.9463 72.6006 61.917 73.0693C61.917 73.5381 62.0781 73.9189 62.4004 74.2119L78.8359 90.5596ZM84.2412 85.1982C84.5635 85.5205 84.959 85.6816 85.4277 85.6816C85.8965 85.6523 86.2773 85.4912 86.5703 85.1982C86.8926 84.8174 87.0537 84.4072 87.0537 83.9678C87.0537 83.499 86.9072 83.1182 86.6143 82.8252L70.1787 66.4336C69.8564 66.1113 69.4609 65.9648 68.9922 65.9941C68.5527 65.9941 68.1865 66.1406 67.8936 66.4336C67.5713 66.7852 67.4102 67.1807 67.4102 67.6201C67.4395 68.0303 67.6006 68.3965 67.8936 68.7188L84.2412 85.1982ZM140.799 152.61L148.665 144.744C149.134 144.246 149.339 143.66 149.28 142.986C149.251 142.342 149.017 141.683 148.577 141.009L139.393 127.298C138.396 125.833 137.093 124.983 135.481 124.749L131.526 124.134L110.213 102.82L106.126 107.522L128.978 130.286L133.899 131.121L142.293 142.283L138.294 146.282L127.176 137.889L126.297 132.967L103.665 110.291L99.5342 114.949L120.145 135.516L120.76 139.471C120.848 140.262 121.126 140.994 121.595 141.668C122.063 142.342 122.635 142.898 123.309 143.338L137.063 152.654C137.767 153.123 138.44 153.343 139.085 153.313C139.729 153.313 140.301 153.079 140.799 152.61ZM55.0615 147.425C57.6104 149.944 60.3643 151.629 63.3232 152.479C66.3115 153.357 69.2852 153.372 72.2441 152.522C75.2324 151.702 77.9717 150.032 80.4619 147.513C82.0732 145.901 83.4502 144.202 84.5928 142.415C85.7354 140.657 86.8633 138.724 87.9766 136.614C89.0898 134.534 90.3936 132.19 91.8877 129.583C93.4111 126.976 95.3301 124.046 97.6445 120.794C99.959 117.513 102.874 113.821 106.39 109.72C109.905 105.589 114.241 100.945 119.397 95.7891L115.574 91.9219C109.92 97.5762 105.247 102.527 101.556 106.775C97.8936 111.023 94.9199 114.729 92.6348 117.894C90.3789 121.028 88.5625 123.782 87.1855 126.155C85.8086 128.528 84.6074 130.652 83.582 132.527C82.5859 134.402 81.5166 136.175 80.374 137.845C79.2607 139.544 77.7959 141.302 75.9795 143.118C73.5479 145.579 70.8086 146.81 67.7617 146.81C64.7441 146.839 61.9609 145.594 59.4121 143.074C56.8926 140.496 55.6328 137.698 55.6328 134.681C55.6328 131.663 56.8486 128.938 59.2803 126.507C61.126 124.69 62.8838 123.226 64.5537 122.112C66.2529 120.97 68.04 119.9 69.915 118.904C71.8193 117.879 73.9434 116.678 76.2871 115.301C78.6602 113.924 81.4287 112.107 84.5928 109.852C87.7568 107.566 91.4482 104.593 95.667 100.931C99.915 97.2393 104.866 92.5664 110.521 86.9121L106.697 83.0889C101.541 88.2451 96.8975 92.5811 92.7666 96.0967C88.665 99.6123 84.9736 102.527 81.6924 104.842C78.4404 107.127 75.5107 109.031 72.9033 110.555C70.2959 112.049 67.9375 113.367 65.8281 114.51C63.748 115.623 61.8145 116.751 60.0273 117.894C58.2695 119.007 56.585 120.369 54.9736 121.98C52.4541 124.5 50.7695 127.239 49.9199 130.198C49.0996 133.157 49.1143 136.131 49.9639 139.119C50.8428 142.107 52.542 144.876 55.0615 147.425ZM67.5859 140.438C69.0801 140.438 70.3545 139.896 71.4092 138.812C72.4932 137.757 73.0352 136.482 73.0352 134.988C73.0352 133.494 72.4932 132.22 71.4092 131.165C70.3545 130.11 69.0801 129.583 67.5859 129.583C66.0918 129.583 64.8174 130.11 63.7627 131.165C62.708 132.22 62.1807 133.494 62.1807 134.988C62.1807 136.482 62.708 137.757 63.7627 138.812C64.8174 139.896 66.0918 140.438 67.5859 140.438ZM109.729 92.7129C112.249 95.2324 115.062 97.1367 118.167 98.4258C121.302 99.7148 124.51 100.403 127.791 100.491C131.072 100.55 134.251 99.9932 137.327 98.8213C140.403 97.6494 143.157 95.8477 145.589 93.416C148.226 90.7793 150.115 87.7324 151.258 84.2754C152.43 80.8184 152.825 77.2441 152.444 73.5527C152.093 69.832 150.936 66.2871 148.973 62.918L144.71 67.2246C145.94 69.7441 146.629 72.3516 146.775 75.0469C146.922 77.7129 146.541 80.291 145.633 82.7812C144.754 85.2422 143.362 87.4248 141.458 89.3291C138.968 91.79 136.067 93.4014 132.757 94.1631C129.476 94.9248 126.15 94.8369 122.781 93.8994C119.441 92.9619 116.468 91.2041 113.86 88.626C111.253 86.0186 109.48 83.0449 108.543 79.7051C107.605 76.3359 107.518 72.9961 108.279 69.6855C109.07 66.375 110.711 63.4893 113.201 61.0283C116.072 58.1572 119.529 56.4434 123.572 55.8867C127.645 55.3008 131.512 55.9453 135.174 57.8203L139.48 53.5137C136.141 51.5508 132.625 50.3936 128.934 50.042C125.242 49.6611 121.668 50.0566 118.211 51.2285C114.783 52.3711 111.751 54.2754 109.114 56.9414C106.683 59.3438 104.866 62.083 103.665 65.1592C102.493 68.2354 101.937 71.4141 101.995 74.6953C102.054 77.9473 102.728 81.1406 104.017 84.2754C105.306 87.3809 107.21 90.1934 109.729 92.7129ZM123.045 72.9814L129.549 79.4414C131.189 81.082 132.962 81.917 134.866 81.9463C136.771 81.9756 138.499 81.2139 140.052 79.6611L149.28 70.3887L145.413 66.5654L137.02 74.8711C135.701 76.2188 134.383 76.2188 133.064 74.8711L127.703 69.4658C126.297 68.0303 126.224 66.6826 127.483 65.4229L135.965 57.0293L131.966 53.1621L122.825 62.3467C121.185 63.958 120.394 65.7158 120.452 67.6201C120.511 69.5244 121.375 71.3115 123.045 72.9814Z" fill="#00D959"/>
</svg>
