<svg width="306" height="306" viewBox="0 0 306 306" fill="none" xmlns="http://www.w3.org/2000/svg">
<path d="M306 84.7917C306 81.6192 306 78.7352 306 75.5627C305.711 68.9294 305.423 62.0076 304.269 55.3742C303.116 48.7409 301.097 42.3959 297.924 36.3394C294.752 30.2828 291.003 24.803 286.1 20.1885C281.197 15.2856 275.717 11.5363 269.949 8.36382C263.892 5.19134 257.547 3.17254 250.914 2.01891C244.281 0.865284 237.647 0.288452 230.726 0.288452C227.553 0.288452 224.669 0.288452 221.497 0.288452C217.747 0.288452 214.286 0.288452 210.537 0.288452H129.495H96.0394C92.2902 0.288452 88.8293 0.288452 85.08 0.288452C81.9075 0.288452 79.0234 0.288452 75.8509 0.288452C74.1205 0.288452 72.3901 0.28847 70.948 0.576877C66.0451 0.865284 60.8537 1.15369 55.9508 2.01891C51.0479 2.88413 46.145 4.32615 41.5305 6.0566C40.0884 6.63341 38.358 7.49867 36.916 8.07548C32.3015 10.3827 28.2637 13.2668 24.226 16.4393C23.0724 17.5929 21.6304 18.7465 20.4768 19.9001C15.5739 24.803 11.8245 30.2828 8.65207 36.0509C5.47959 42.1075 3.46075 48.4525 2.30712 55.0858C1.15349 61.7192 0.865067 68.3525 0.57666 75.2743C0.57666 78.4468 0.57666 81.3309 0.57666 84.5034C0.57666 88.2527 0.57666 91.7135 0.57666 95.4628V145.357V209.961C0.57666 213.71 0.57666 217.171 0.57666 220.92C0.57666 224.092 0.57666 226.977 0.57666 230.149C0.865067 236.782 1.15349 243.704 2.30712 250.338C3.46075 256.971 5.47959 263.316 8.65207 269.372C11.8245 275.429 15.5739 280.909 20.4768 285.523C25.3797 290.426 30.8594 294.175 36.6276 297.348C42.6841 300.52 49.0291 302.539 55.6624 303.693C62.2958 304.846 68.9292 305.423 75.8509 305.423C79.0234 305.423 81.9075 305.423 85.08 305.423C88.8293 305.423 92.2902 305.423 96.0394 305.423H210.537C214.286 305.423 217.747 305.423 221.497 305.423C224.669 305.423 227.553 305.423 230.726 305.423C237.359 305.135 244.281 304.846 250.914 303.693C257.547 302.539 263.892 300.52 269.949 297.348C276.006 294.175 281.485 290.426 286.1 285.523C291.003 280.62 294.752 275.14 297.924 269.372C301.097 263.316 303.116 256.971 304.269 250.338C305.423 243.704 306 237.071 306 230.149C306 226.977 306 224.092 306 220.92C306 217.171 306 213.71 306 209.961V95.4628C306 92.0019 306 88.541 306 84.7917Z" fill="#F05138"/>
<path d="M242.262 188.907C242.55 187.753 242.839 186.6 243.127 185.446C255.817 134.975 224.958 74.9859 172.467 43.5496C195.54 74.6975 205.634 112.479 196.694 145.357C195.828 148.241 194.963 151.125 193.81 154.009C192.656 153.144 191.214 152.279 189.195 151.414C189.195 151.414 136.993 119.112 80.4655 62.296C79.0235 60.854 110.748 107.576 146.511 145.357C129.495 135.84 82.4844 101.519 52.4901 74.4092C56.2393 80.4657 60.5655 86.5222 65.18 92.0019C89.983 123.727 122.573 162.662 161.508 192.656C134.109 209.384 95.4627 210.826 57.1046 192.656C47.5872 188.33 38.6465 182.85 30.2827 176.794C46.4335 202.75 71.5249 225.246 102.096 238.513C138.435 254.087 174.775 253.222 201.597 238.801C201.597 238.801 201.885 238.801 201.885 238.513C203.039 237.936 204.192 237.071 205.346 236.494C218.324 229.861 243.704 223.227 257.548 249.761C261.585 255.817 268.795 221.208 242.262 188.907Z" fill="white"/>
</svg>
