<svg xmlns="http://www.w3.org/2000/svg" fill="none" viewBox="0 0 306 306"><path fill="#F05138" d="M306 84.792v-9.23c-.289-6.633-.577-13.554-1.731-20.188-1.153-6.633-3.172-12.978-6.345-19.035-3.172-6.056-6.921-11.536-11.824-16.15-4.903-4.903-10.383-8.653-16.151-11.825-6.057-3.173-12.402-5.191-19.035-6.345a116.781 116.781 0 0 0-20.188-1.73H75.85c-1.73 0-3.46 0-4.902.288-4.903.288-10.094.577-14.997 1.442-4.903.865-9.806 2.307-14.42 4.038-1.443.576-3.173 1.442-4.615 2.018-4.614 2.308-8.652 5.192-12.69 8.364-1.154 1.154-2.596 2.308-3.75 3.461-4.902 4.903-8.651 10.383-11.824 16.15-3.172 6.058-5.191 12.403-6.345 19.036C1.153 61.719.865 68.353.577 75.274V230.15c.288 6.633.576 13.555 1.73 20.189 1.154 6.633 3.173 12.978 6.345 19.034 3.173 6.057 6.922 11.537 11.825 16.151 4.903 4.903 10.382 8.652 16.15 11.825 6.057 3.172 12.402 5.191 19.035 6.345a116.846 116.846 0 0 0 20.189 1.73h154.875c6.633-.288 13.555-.577 20.188-1.73 6.633-1.154 12.978-3.173 19.035-6.345 6.057-3.173 11.536-6.922 16.151-11.825 4.903-4.903 8.652-10.383 11.824-16.151 3.173-6.056 5.192-12.401 6.345-19.034A116.756 116.756 0 0 0 306 230.149v-9.229V95.463 84.792z"/><path fill="#fff" d="M242.262 188.907l.865-3.461c12.69-50.471-18.169-110.46-70.66-141.896 23.073 31.148 33.167 68.929 24.227 101.807-.866 2.884-1.731 5.768-2.884 8.652-1.154-.865-2.596-1.73-4.615-2.595 0 0-52.202-32.302-108.73-89.118-1.442-1.442 30.283 45.28 66.046 83.061-17.016-9.517-64.027-43.838-94.02-70.948 3.748 6.057 8.075 12.113 12.689 17.593 24.803 31.725 57.393 70.66 96.328 100.654-27.399 16.728-66.045 18.17-104.403 0-9.518-4.326-18.458-9.806-26.822-15.862 16.15 25.956 41.242 48.452 71.813 61.719 36.339 15.574 72.679 14.709 99.501.288 0 0 .288 0 .288-.288 1.154-.577 2.307-1.442 3.461-2.019 12.978-6.633 38.358-13.267 52.202 13.267 4.037 6.056 11.247-28.553-15.286-60.854z"/></svg>