<svg width="655" height="406" viewBox="0 0 655 406" fill="none" xmlns="http://www.w3.org/2000/svg">
<g filter="url(#filter0_f_55_292)">
<ellipse cx="327.421" cy="358.874" rx="282.91" ry="3.12608" fill="black"/>
</g>
<path d="M74.2712 28C74.2712 13.0884 86.3595 1 101.271 1H555.447C570.359 1 582.447 13.0883 582.447 28V342.37C582.447 344.026 581.104 345.37 579.447 345.37H77.2712C75.6143 345.37 74.2712 344.026 74.2712 342.37V28Z" fill="#1A202C" stroke="#4A5568" stroke-width="2"/>
<path d="M76.3973 25.1261C76.3973 12.9758 86.247 3.1261 98.3973 3.1261H558.321C570.472 3.1261 580.321 12.9758 580.321 25.1261V333.24H76.3973V25.1261Z" fill="black"/>
<rect x="89.5269" y="20.6321" width="475.789" height="298.853" fill="white"/>
<path d="M267.84 165.102V182.556H264.149V165.102H267.84ZM274.438 174.988V182.556H270.808V169.465H274.268V171.775H274.421C274.711 171.014 275.197 170.411 275.879 169.968C276.561 169.519 277.387 169.295 278.359 169.295C279.268 169.295 280.061 169.494 280.737 169.891C281.413 170.289 281.938 170.857 282.313 171.596C282.688 172.329 282.876 173.204 282.876 174.221V182.556H279.245V174.869C279.251 174.068 279.046 173.443 278.632 172.994C278.217 172.539 277.646 172.312 276.919 172.312C276.43 172.312 275.998 172.417 275.623 172.627C275.254 172.837 274.964 173.144 274.754 173.548C274.549 173.945 274.444 174.425 274.438 174.988ZM296.63 173.198L293.306 173.403C293.249 173.119 293.127 172.863 292.939 172.636C292.752 172.403 292.505 172.218 292.198 172.082C291.897 171.94 291.536 171.869 291.115 171.869C290.553 171.869 290.078 171.988 289.692 172.227C289.306 172.46 289.112 172.772 289.112 173.164C289.112 173.477 289.237 173.741 289.487 173.957C289.737 174.173 290.166 174.346 290.774 174.477L293.144 174.954C294.416 175.215 295.365 175.636 295.99 176.215C296.615 176.795 296.928 177.556 296.928 178.499C296.928 179.357 296.675 180.11 296.169 180.758C295.669 181.406 294.982 181.911 294.107 182.275C293.237 182.633 292.235 182.812 291.098 182.812C289.365 182.812 287.985 182.451 286.956 181.729C285.933 181.002 285.334 180.014 285.158 178.764L288.729 178.576C288.837 179.104 289.098 179.508 289.513 179.786C289.928 180.059 290.459 180.195 291.107 180.195C291.743 180.195 292.255 180.073 292.641 179.829C293.033 179.579 293.232 179.258 293.237 178.866C293.232 178.536 293.093 178.266 292.82 178.056C292.547 177.84 292.127 177.675 291.558 177.562L289.291 177.11C288.013 176.854 287.061 176.411 286.436 175.781C285.817 175.15 285.507 174.346 285.507 173.369C285.507 172.528 285.735 171.803 286.189 171.195C286.649 170.587 287.294 170.119 288.124 169.789C288.959 169.46 289.936 169.295 291.056 169.295C292.709 169.295 294.01 169.644 294.959 170.343C295.914 171.042 296.47 171.994 296.63 173.198ZM305.18 182.812C303.833 182.812 302.674 182.539 301.703 181.994C300.737 181.443 299.992 180.664 299.47 179.658C298.947 178.647 298.686 177.451 298.686 176.07C298.686 174.724 298.947 173.542 299.47 172.525C299.992 171.508 300.728 170.715 301.677 170.147C302.632 169.579 303.751 169.295 305.035 169.295C305.899 169.295 306.703 169.434 307.447 169.712C308.197 169.985 308.85 170.397 309.407 170.948C309.97 171.499 310.407 172.193 310.72 173.028C311.032 173.857 311.188 174.829 311.188 175.943V176.94H300.134V174.69H307.771C307.771 174.167 307.657 173.704 307.43 173.3C307.203 172.897 306.887 172.582 306.484 172.354C306.086 172.121 305.623 172.005 305.095 172.005C304.544 172.005 304.055 172.133 303.629 172.389C303.208 172.639 302.879 172.977 302.64 173.403C302.402 173.823 302.279 174.292 302.274 174.809V176.948C302.274 177.596 302.393 178.156 302.632 178.627C302.876 179.099 303.22 179.462 303.663 179.718C304.106 179.974 304.632 180.102 305.24 180.102C305.643 180.102 306.012 180.045 306.348 179.931C306.683 179.818 306.97 179.647 307.208 179.42C307.447 179.193 307.629 178.914 307.754 178.585L311.112 178.806C310.941 179.613 310.592 180.318 310.063 180.92C309.541 181.516 308.865 181.982 308.035 182.318C307.211 182.647 306.259 182.812 305.18 182.812ZM313.558 182.556V169.465H317.078V171.749H317.214C317.453 170.937 317.853 170.323 318.416 169.908C318.978 169.488 319.626 169.278 320.359 169.278C320.541 169.278 320.737 169.289 320.947 169.312C321.157 169.335 321.342 169.366 321.501 169.406V172.627C321.331 172.576 321.095 172.531 320.794 172.491C320.492 172.451 320.217 172.431 319.967 172.431C319.433 172.431 318.956 172.548 318.535 172.781C318.12 173.008 317.791 173.326 317.546 173.735C317.308 174.144 317.188 174.616 317.188 175.15V182.556H313.558ZM330.997 169.465V172.193H323.114V169.465H330.997ZM324.904 166.329H328.534V178.533C328.534 178.869 328.585 179.13 328.688 179.318C328.79 179.499 328.932 179.627 329.114 179.701C329.301 179.775 329.517 179.812 329.762 179.812C329.932 179.812 330.103 179.798 330.273 179.769C330.443 179.735 330.574 179.71 330.665 179.693L331.236 182.394C331.054 182.451 330.799 182.516 330.469 182.59C330.139 182.67 329.739 182.718 329.267 182.735C328.392 182.769 327.625 182.653 326.966 182.386C326.313 182.119 325.804 181.704 325.441 181.141C325.077 180.579 324.898 179.869 324.904 179.011V166.329ZM337.963 165.102H342.096L346.076 172.619H346.247L350.227 165.102H354.36L347.994 176.386V182.556H344.329V176.386L337.963 165.102ZM359.48 182.812C358.157 182.812 357.012 182.531 356.046 181.968C355.085 181.4 354.344 180.61 353.821 179.599C353.299 178.582 353.037 177.403 353.037 176.062C353.037 174.71 353.299 173.528 353.821 172.516C354.344 171.499 355.085 170.71 356.046 170.147C357.012 169.579 358.157 169.295 359.48 169.295C360.804 169.295 361.946 169.579 362.907 170.147C363.872 170.71 364.617 171.499 365.139 172.516C365.662 173.528 365.924 174.71 365.924 176.062C365.924 177.403 365.662 178.582 365.139 179.599C364.617 180.61 363.872 181.4 362.907 181.968C361.946 182.531 360.804 182.812 359.48 182.812ZM359.497 179.999C360.1 179.999 360.603 179.829 361.006 179.488C361.409 179.141 361.713 178.67 361.918 178.073C362.128 177.477 362.233 176.798 362.233 176.036C362.233 175.275 362.128 174.596 361.918 173.999C361.713 173.403 361.409 172.931 361.006 172.585C360.603 172.238 360.1 172.065 359.497 172.065C358.889 172.065 358.378 172.238 357.963 172.585C357.554 172.931 357.245 173.403 357.034 173.999C356.83 174.596 356.728 175.275 356.728 176.036C356.728 176.798 356.83 177.477 357.034 178.073C357.245 178.67 357.554 179.141 357.963 179.488C358.378 179.829 358.889 179.999 359.497 179.999ZM376.679 176.982V169.465H380.31V182.556H376.824V180.178H376.688C376.392 180.945 375.901 181.562 375.213 182.028C374.532 182.494 373.699 182.727 372.716 182.727C371.841 182.727 371.071 182.528 370.407 182.13C369.742 181.732 369.222 181.167 368.847 180.434C368.478 179.701 368.29 178.823 368.284 177.8V169.465H371.915V177.153C371.921 177.925 372.128 178.536 372.537 178.985C372.946 179.434 373.495 179.658 374.182 179.658C374.62 179.658 375.029 179.559 375.409 179.36C375.79 179.156 376.097 178.854 376.33 178.457C376.568 178.059 376.685 177.568 376.679 176.982ZM383.214 182.556V169.465H386.734V171.749H386.87C387.109 170.937 387.509 170.323 388.072 169.908C388.634 169.488 389.282 169.278 390.015 169.278C390.197 169.278 390.393 169.289 390.603 169.312C390.813 169.335 390.998 169.366 391.157 169.406V172.627C390.987 172.576 390.751 172.531 390.45 172.491C390.149 172.451 389.873 172.431 389.623 172.431C389.089 172.431 388.612 172.548 388.191 172.781C387.777 173.008 387.447 173.326 387.203 173.735C386.964 174.144 386.845 174.616 386.845 175.15V182.556H383.214ZM263.165 204.556H256.978V187.102H263.216C264.972 187.102 266.483 187.451 267.75 188.15C269.017 188.843 269.992 189.84 270.674 191.141C271.361 192.443 271.705 193.999 271.705 195.812C271.705 197.63 271.361 199.193 270.674 200.499C269.992 201.806 269.012 202.809 267.733 203.508C266.46 204.207 264.938 204.556 263.165 204.556ZM260.668 201.394H263.012C264.103 201.394 265.02 201.201 265.764 200.815C266.514 200.423 267.077 199.818 267.452 198.999C267.833 198.175 268.023 197.113 268.023 195.812C268.023 194.522 267.833 193.468 267.452 192.65C267.077 191.832 266.517 191.229 265.773 190.843C265.029 190.457 264.111 190.264 263.02 190.264H260.668V201.394ZM280.336 204.812C278.99 204.812 277.831 204.539 276.859 203.994C275.893 203.443 275.149 202.664 274.626 201.658C274.103 200.647 273.842 199.451 273.842 198.07C273.842 196.724 274.103 195.542 274.626 194.525C275.149 193.508 275.884 192.715 276.833 192.147C277.788 191.579 278.907 191.295 280.191 191.295C281.055 191.295 281.859 191.434 282.603 191.712C283.353 191.985 284.007 192.397 284.563 192.948C285.126 193.499 285.563 194.193 285.876 195.028C286.188 195.857 286.345 196.829 286.345 197.943V198.94H275.291V196.69H282.927C282.927 196.167 282.813 195.704 282.586 195.3C282.359 194.897 282.044 194.582 281.64 194.354C281.242 194.121 280.779 194.005 280.251 194.005C279.7 194.005 279.211 194.133 278.785 194.389C278.365 194.639 278.035 194.977 277.796 195.403C277.558 195.823 277.436 196.292 277.43 196.809V198.948C277.43 199.596 277.549 200.156 277.788 200.627C278.032 201.099 278.376 201.462 278.819 201.718C279.262 201.974 279.788 202.102 280.396 202.102C280.799 202.102 281.169 202.045 281.504 201.931C281.839 201.818 282.126 201.647 282.365 201.42C282.603 201.193 282.785 200.914 282.91 200.585L286.268 200.806C286.098 201.613 285.748 202.318 285.22 202.92C284.697 203.516 284.021 203.982 283.191 204.318C282.367 204.647 281.416 204.812 280.336 204.812ZM299.606 195.198L296.282 195.403C296.225 195.119 296.103 194.863 295.916 194.636C295.728 194.403 295.481 194.218 295.174 194.082C294.873 193.94 294.512 193.869 294.092 193.869C293.529 193.869 293.055 193.988 292.669 194.227C292.282 194.46 292.089 194.772 292.089 195.164C292.089 195.477 292.214 195.741 292.464 195.957C292.714 196.173 293.143 196.346 293.751 196.477L296.12 196.954C297.393 197.215 298.342 197.636 298.967 198.215C299.592 198.795 299.904 199.556 299.904 200.499C299.904 201.357 299.652 202.11 299.146 202.758C298.646 203.406 297.958 203.911 297.083 204.275C296.214 204.633 295.211 204.812 294.075 204.812C292.342 204.812 290.961 204.451 289.933 203.729C288.91 203.002 288.311 202.014 288.134 200.764L291.706 200.576C291.813 201.104 292.075 201.508 292.49 201.786C292.904 202.059 293.436 202.195 294.083 202.195C294.72 202.195 295.231 202.073 295.617 201.829C296.009 201.579 296.208 201.258 296.214 200.866C296.208 200.536 296.069 200.266 295.796 200.056C295.524 199.84 295.103 199.675 294.535 199.562L292.268 199.11C290.99 198.854 290.038 198.411 289.413 197.781C288.794 197.15 288.484 196.346 288.484 195.369C288.484 194.528 288.711 193.803 289.166 193.195C289.626 192.587 290.271 192.119 291.1 191.789C291.936 191.46 292.913 191.295 294.032 191.295C295.686 191.295 296.987 191.644 297.936 192.343C298.89 193.042 299.447 193.994 299.606 195.198ZM302.191 204.556V191.465H305.821V204.556H302.191ZM304.014 189.778C303.475 189.778 303.012 189.599 302.625 189.241C302.245 188.877 302.054 188.443 302.054 187.937C302.054 187.437 302.245 187.008 302.625 186.65C303.012 186.286 303.475 186.104 304.014 186.104C304.554 186.104 305.014 186.286 305.395 186.65C305.782 187.008 305.975 187.437 305.975 187.937C305.975 188.443 305.782 188.877 305.395 189.241C305.014 189.599 304.554 189.778 304.014 189.778ZM314.627 209.738C313.451 209.738 312.443 209.576 311.602 209.252C310.767 208.934 310.102 208.499 309.608 207.948C309.113 207.397 308.792 206.778 308.644 206.09L312.002 205.639C312.105 205.9 312.267 206.144 312.488 206.371C312.71 206.599 313.002 206.781 313.366 206.917C313.735 207.059 314.184 207.13 314.713 207.13C315.502 207.13 316.153 206.937 316.664 206.55C317.181 206.17 317.44 205.531 317.44 204.633V202.238H317.286C317.127 202.602 316.889 202.945 316.571 203.269C316.252 203.593 315.843 203.857 315.343 204.062C314.843 204.266 314.247 204.369 313.554 204.369C312.571 204.369 311.676 204.141 310.869 203.687C310.068 203.227 309.429 202.525 308.951 201.582C308.48 200.633 308.244 199.434 308.244 197.985C308.244 196.502 308.485 195.264 308.968 194.269C309.451 193.275 310.093 192.531 310.894 192.036C311.701 191.542 312.585 191.295 313.545 191.295C314.278 191.295 314.892 191.42 315.386 191.67C315.88 191.914 316.278 192.221 316.579 192.59C316.886 192.954 317.122 193.312 317.286 193.664H317.423V191.465H321.028V204.684C321.028 205.798 320.755 206.729 320.21 207.479C319.664 208.229 318.909 208.792 317.943 209.167C316.983 209.548 315.877 209.738 314.627 209.738ZM314.704 201.641C315.289 201.641 315.784 201.496 316.187 201.207C316.596 200.911 316.909 200.491 317.125 199.945C317.346 199.394 317.457 198.735 317.457 197.968C317.457 197.201 317.349 196.536 317.133 195.974C316.917 195.406 316.605 194.965 316.196 194.653C315.786 194.34 315.289 194.184 314.704 194.184C314.108 194.184 313.605 194.346 313.196 194.67C312.786 194.988 312.477 195.431 312.267 195.999C312.056 196.568 311.951 197.224 311.951 197.968C311.951 198.724 312.056 199.377 312.267 199.928C312.483 200.474 312.792 200.897 313.196 201.198C313.605 201.494 314.108 201.641 314.704 201.641ZM327.548 196.988V204.556H323.917V191.465H327.377V193.775H327.531C327.821 193.014 328.306 192.411 328.988 191.968C329.67 191.519 330.497 191.295 331.468 191.295C332.377 191.295 333.17 191.494 333.846 191.891C334.522 192.289 335.048 192.857 335.423 193.596C335.798 194.329 335.985 195.204 335.985 196.221V204.556H332.355V196.869C332.36 196.068 332.156 195.443 331.741 194.994C331.326 194.539 330.755 194.312 330.028 194.312C329.539 194.312 329.108 194.417 328.733 194.627C328.363 194.837 328.073 195.144 327.863 195.548C327.659 195.945 327.554 196.425 327.548 196.988ZM344.47 204.556V187.102H348.16V194.303H355.652V187.102H359.333V204.556H355.652V197.346H348.16V204.556H344.47ZM368.274 204.812C366.927 204.812 365.768 204.539 364.796 203.994C363.831 203.443 363.086 202.664 362.563 201.658C362.041 200.647 361.779 199.451 361.779 198.07C361.779 196.724 362.041 195.542 362.563 194.525C363.086 193.508 363.822 192.715 364.771 192.147C365.725 191.579 366.845 191.295 368.129 191.295C368.992 191.295 369.796 191.434 370.541 191.712C371.291 191.985 371.944 192.397 372.501 192.948C373.063 193.499 373.501 194.193 373.813 195.028C374.126 195.857 374.282 196.829 374.282 197.943V198.94H363.228V196.69H370.865C370.865 196.167 370.751 195.704 370.524 195.3C370.296 194.897 369.981 194.582 369.578 194.354C369.18 194.121 368.717 194.005 368.188 194.005C367.637 194.005 367.149 194.133 366.723 194.389C366.302 194.639 365.973 194.977 365.734 195.403C365.495 195.823 365.373 196.292 365.367 196.809V198.948C365.367 199.596 365.487 200.156 365.725 200.627C365.97 201.099 366.313 201.462 366.757 201.718C367.2 201.974 367.725 202.102 368.333 202.102C368.737 202.102 369.106 202.045 369.441 201.931C369.777 201.818 370.063 201.647 370.302 201.42C370.541 201.193 370.723 200.914 370.848 200.585L374.206 200.806C374.035 201.613 373.686 202.318 373.157 202.92C372.634 203.516 371.958 203.982 371.129 204.318C370.305 204.647 369.353 204.812 368.274 204.812ZM376.652 204.556V191.465H380.171V193.749H380.308C380.546 192.937 380.947 192.323 381.509 191.908C382.072 191.488 382.72 191.278 383.453 191.278C383.634 191.278 383.831 191.289 384.041 191.312C384.251 191.335 384.436 191.366 384.595 191.406V194.627C384.424 194.576 384.188 194.531 383.887 194.491C383.586 194.451 383.311 194.431 383.061 194.431C382.527 194.431 382.049 194.548 381.629 194.781C381.214 195.008 380.884 195.326 380.64 195.735C380.402 196.144 380.282 196.616 380.282 197.15V204.556H376.652ZM391.828 204.812C390.482 204.812 389.323 204.539 388.351 203.994C387.385 203.443 386.641 202.664 386.118 201.658C385.595 200.647 385.334 199.451 385.334 198.07C385.334 196.724 385.595 195.542 386.118 194.525C386.641 193.508 387.377 192.715 388.326 192.147C389.28 191.579 390.399 191.295 391.683 191.295C392.547 191.295 393.351 191.434 394.095 191.712C394.845 191.985 395.499 192.397 396.056 192.948C396.618 193.499 397.056 194.193 397.368 195.028C397.681 195.857 397.837 196.829 397.837 197.943V198.94H386.783V196.69H394.419C394.419 196.167 394.306 195.704 394.078 195.3C393.851 194.897 393.536 194.582 393.132 194.354C392.735 194.121 392.272 194.005 391.743 194.005C391.192 194.005 390.703 194.133 390.277 194.389C389.857 194.639 389.527 194.977 389.289 195.403C389.05 195.823 388.928 196.292 388.922 196.809V198.948C388.922 199.596 389.041 200.156 389.28 200.627C389.524 201.099 389.868 201.462 390.311 201.718C390.755 201.974 391.28 202.102 391.888 202.102C392.291 202.102 392.661 202.045 392.996 201.931C393.331 201.818 393.618 201.647 393.857 201.42C394.095 201.193 394.277 200.914 394.402 200.585L397.76 200.806C397.59 201.613 397.24 202.318 396.712 202.92C396.189 203.516 395.513 203.982 394.683 204.318C393.86 204.647 392.908 204.812 391.828 204.812Z" fill="#2D3748"/>
<path d="M306.238 335.774H307.367L308.878 339.463H308.938L310.449 335.774H311.578V340.865H310.693V337.368H310.646L309.239 340.85H308.578L307.171 337.36H307.123V340.865H306.238V335.774ZM313.641 340.942C313.399 340.942 313.181 340.899 312.987 340.813C312.795 340.725 312.643 340.596 312.53 340.425C312.419 340.255 312.363 340.044 312.363 339.794C312.363 339.578 312.403 339.4 312.483 339.259C312.562 339.119 312.671 339.006 312.808 338.921C312.946 338.837 313.101 338.773 313.273 338.73C313.447 338.685 313.627 338.653 313.813 338.633C314.036 338.61 314.218 338.589 314.357 338.571C314.496 338.551 314.597 338.521 314.66 338.481C314.725 338.44 314.757 338.376 314.757 338.29V338.275C314.757 338.088 314.702 337.943 314.591 337.84C314.48 337.737 314.32 337.686 314.111 337.686C313.891 337.686 313.716 337.734 313.586 337.83C313.459 337.926 313.373 338.04 313.328 338.171L312.488 338.051C312.554 337.819 312.663 337.625 312.816 337.47C312.968 337.312 313.155 337.195 313.375 337.117C313.596 337.037 313.839 336.997 314.106 336.997C314.29 336.997 314.473 337.019 314.655 337.062C314.838 337.105 315.004 337.176 315.155 337.276C315.306 337.374 315.427 337.507 315.518 337.676C315.611 337.845 315.657 338.056 315.657 338.31V340.865H314.792V340.341H314.762C314.708 340.447 314.63 340.546 314.531 340.639C314.433 340.73 314.31 340.804 314.161 340.86C314.013 340.915 313.84 340.942 313.641 340.942ZM313.875 340.281C314.055 340.281 314.212 340.245 314.345 340.174C314.477 340.101 314.579 340.005 314.65 339.886C314.723 339.767 314.76 339.636 314.76 339.496V339.046C314.732 339.069 314.684 339.09 314.616 339.11C314.549 339.13 314.475 339.148 314.392 339.162C314.309 339.177 314.227 339.191 314.146 339.202C314.065 339.214 313.994 339.224 313.934 339.232C313.8 339.25 313.68 339.28 313.574 339.322C313.468 339.363 313.384 339.421 313.323 339.496C313.262 339.568 313.231 339.663 313.231 339.779C313.231 339.945 313.291 340.07 313.412 340.154C313.533 340.239 313.688 340.281 313.875 340.281ZM318.227 340.94C317.846 340.94 317.519 340.856 317.246 340.689C316.974 340.521 316.764 340.29 316.617 339.995C316.471 339.699 316.398 339.357 316.398 338.971C316.398 338.583 316.472 338.241 316.622 337.944C316.771 337.646 316.981 337.414 317.253 337.248C317.526 337.081 317.85 336.997 318.222 336.997C318.532 336.997 318.807 337.055 319.045 337.169C319.286 337.282 319.477 337.441 319.619 337.649C319.762 337.854 319.843 338.094 319.863 338.369H319.003C318.968 338.186 318.885 338.032 318.754 337.91C318.625 337.785 318.452 337.723 318.235 337.723C318.051 337.723 317.889 337.773 317.75 337.872C317.611 337.97 317.502 338.111 317.425 338.295C317.348 338.479 317.31 338.699 317.31 338.956C317.31 339.216 317.348 339.44 317.425 339.627C317.501 339.813 317.608 339.956 317.745 340.057C317.884 340.157 318.048 340.206 318.235 340.206C318.367 340.206 318.486 340.182 318.59 340.132C318.696 340.081 318.785 340.007 318.856 339.911C318.928 339.815 318.976 339.698 319.003 339.56H319.863C319.842 339.83 319.762 340.07 319.624 340.279C319.487 340.486 319.3 340.648 319.063 340.766C318.826 340.882 318.547 340.94 318.227 340.94ZM320.642 340.865V335.774H321.542V337.678H321.579C321.625 337.586 321.691 337.487 321.775 337.383C321.86 337.277 321.974 337.186 322.118 337.112C322.262 337.035 322.446 336.997 322.67 336.997C322.965 336.997 323.231 337.073 323.468 337.224C323.707 337.373 323.896 337.594 324.035 337.887C324.176 338.179 324.246 338.537 324.246 338.961C324.246 339.38 324.177 339.737 324.04 340.03C323.902 340.323 323.715 340.547 323.478 340.701C323.241 340.855 322.973 340.932 322.673 340.932C322.454 340.932 322.272 340.896 322.128 340.823C321.984 340.75 321.868 340.662 321.78 340.559C321.694 340.455 321.627 340.356 321.579 340.264H321.527V340.865H320.642ZM321.524 338.956C321.524 339.203 321.559 339.419 321.629 339.605C321.7 339.791 321.802 339.936 321.934 340.04C322.069 340.143 322.231 340.194 322.422 340.194C322.62 340.194 322.787 340.141 322.921 340.035C323.055 339.927 323.157 339.781 323.224 339.595C323.294 339.408 323.329 339.195 323.329 338.956C323.329 338.719 323.295 338.509 323.227 338.325C323.159 338.141 323.058 337.997 322.924 337.892C322.789 337.788 322.622 337.736 322.422 337.736C322.229 337.736 322.066 337.786 321.932 337.887C321.798 337.988 321.696 338.13 321.626 338.312C321.558 338.495 321.524 338.709 321.524 338.956ZM326.677 340.94C326.304 340.94 325.981 340.858 325.707 340.694C325.434 340.53 325.222 340.3 325.071 340.005C324.922 339.71 324.847 339.365 324.847 338.971C324.847 338.577 324.922 338.231 325.071 337.934C325.222 337.638 325.434 337.407 325.707 337.243C325.981 337.079 326.304 336.997 326.677 336.997C327.05 336.997 327.373 337.079 327.646 337.243C327.92 337.407 328.131 337.638 328.28 337.934C328.431 338.231 328.506 338.577 328.506 338.971C328.506 339.365 328.431 339.71 328.28 340.005C328.131 340.3 327.92 340.53 327.646 340.694C327.373 340.858 327.05 340.94 326.677 340.94ZM326.682 340.219C326.884 340.219 327.053 340.163 327.189 340.052C327.325 339.94 327.426 339.789 327.492 339.6C327.56 339.411 327.594 339.201 327.594 338.969C327.594 338.735 327.56 338.524 327.492 338.335C327.426 338.144 327.325 337.992 327.189 337.88C327.053 337.767 326.884 337.711 326.682 337.711C326.474 337.711 326.302 337.767 326.165 337.88C326.029 337.992 325.927 338.144 325.859 338.335C325.793 338.524 325.759 338.735 325.759 338.969C325.759 339.201 325.793 339.411 325.859 339.6C325.927 339.789 326.029 339.94 326.165 340.052C326.302 340.163 326.474 340.219 326.682 340.219ZM330.935 340.94C330.563 340.94 330.239 340.858 329.966 340.694C329.693 340.53 329.48 340.3 329.33 340.005C329.18 339.71 329.106 339.365 329.106 338.971C329.106 338.577 329.18 338.231 329.33 337.934C329.48 337.638 329.693 337.407 329.966 337.243C330.239 337.079 330.563 336.997 330.935 336.997C331.308 336.997 331.631 337.079 331.905 337.243C332.178 337.407 332.39 337.638 332.539 337.934C332.69 338.231 332.765 338.577 332.765 338.971C332.765 339.365 332.69 339.71 332.539 340.005C332.39 340.3 332.178 340.53 331.905 340.694C331.631 340.858 331.308 340.94 330.935 340.94ZM330.94 340.219C331.143 340.219 331.312 340.163 331.448 340.052C331.583 339.94 331.684 339.789 331.751 339.6C331.819 339.411 331.853 339.201 331.853 338.969C331.853 338.735 331.819 338.524 331.751 338.335C331.684 338.144 331.583 337.992 331.448 337.88C331.312 337.767 331.143 337.711 330.94 337.711C330.733 337.711 330.561 337.767 330.423 337.88C330.287 337.992 330.186 338.144 330.118 338.335C330.051 338.524 330.018 338.735 330.018 338.969C330.018 339.201 330.051 339.411 330.118 339.6C330.186 339.789 330.287 339.94 330.423 340.052C330.561 340.163 330.733 340.219 330.94 340.219ZM334.349 339.667L334.347 338.581H334.491L335.863 337.047H336.914L335.227 338.926H335.04L334.349 339.667ZM333.529 340.865V335.774H334.429V340.865H333.529ZM335.925 340.865L334.682 339.128L335.289 338.494L337.001 340.865H335.925ZM339.944 340.865H338.96L340.752 335.774H341.89L343.685 340.865H342.701L341.341 336.818H341.301L339.944 340.865ZM339.976 338.869H342.661V339.61H339.976V338.869ZM344.343 340.865V337.047H345.243V340.865H344.343ZM344.796 336.505C344.653 336.505 344.53 336.458 344.428 336.363C344.325 336.267 344.274 336.152 344.274 336.018C344.274 335.882 344.325 335.767 344.428 335.672C344.53 335.576 344.653 335.528 344.796 335.528C344.94 335.528 345.062 335.576 345.163 335.672C345.266 335.767 345.318 335.882 345.318 336.018C345.318 336.152 345.266 336.267 345.163 336.363C345.062 336.458 344.94 336.505 344.796 336.505ZM346.168 340.865V337.047H347.041V337.683H347.081C347.15 337.463 347.27 337.293 347.439 337.174C347.609 337.053 347.804 336.992 348.023 336.992C348.073 336.992 348.128 336.995 348.189 337C348.252 337.003 348.305 337.009 348.346 337.017V337.845C348.308 337.832 348.247 337.82 348.164 337.81C348.083 337.799 348.005 337.793 347.928 337.793C347.764 337.793 347.617 337.828 347.486 337.9C347.357 337.969 347.255 338.066 347.18 338.191C347.106 338.315 347.068 338.458 347.068 338.621V340.865H346.168Z" fill="#A0AEC0"/>
<path d="M12 345.869C12 344.764 12.8954 343.869 14 343.869H640.218C641.322 343.869 642.218 344.764 642.218 345.869V347.62H12V345.869Z" fill="#A3ACB1"/>
<path d="M12 345.869C12 344.764 12.8954 343.869 14 343.869H640.218C641.322 343.869 642.218 344.764 642.218 345.869V347.62H12V345.869Z" fill="url(#paint0_linear_55_292)"/>
<path d="M12 347.62H642.218C617.479 352.609 592.305 355.123 567.068 355.123H80.3469C57.3591 355.123 34.4404 352.607 12 347.62Z" fill="#647279"/>
<path d="M12 347.62H642.218C617.479 352.609 592.305 355.123 567.068 355.123H80.3469C57.3591 355.123 34.4404 352.607 12 347.62Z" fill="url(#paint1_linear_55_292)"/>
<path fill-rule="evenodd" clip-rule="evenodd" d="M280.863 343.869C281.185 345.964 279.625 347.62 284.594 347.62H370.249C375.218 347.62 373.658 345.964 373.979 343.869H280.863Z" fill="#96A1A8"/>
<path fill-rule="evenodd" clip-rule="evenodd" d="M280.863 343.869C281.185 345.964 279.625 347.62 284.594 347.62H370.249C375.218 347.62 373.658 345.964 373.979 343.869H280.863Z" fill="url(#paint2_linear_55_292)"/>
<defs>
<filter id="filter0_f_55_292" x="0.51123" y="311.748" width="653.82" height="94.2521" filterUnits="userSpaceOnUse" color-interpolation-filters="sRGB">
<feFlood flood-opacity="0" result="BackgroundImageFix"/>
<feBlend mode="normal" in="SourceGraphic" in2="BackgroundImageFix" result="shape"/>
<feGaussianBlur stdDeviation="22" result="effect1_foregroundBlur_55_292"/>
</filter>
<linearGradient id="paint0_linear_55_292" x1="12" y1="345.744" x2="642.218" y2="345.744" gradientUnits="userSpaceOnUse">
<stop stop-color="#0D1012"/>
<stop offset="0.0295345" stop-color="#CAD4DB"/>
<stop offset="0.0625" stop-color="#242729"/>
<stop offset="0.133609" stop-color="#A3ACB1"/>
<stop offset="0.865967" stop-color="#A3ACB1"/>
<stop offset="0.941937" stop-color="#242729"/>
<stop offset="0.971275" stop-color="#CAD4DB"/>
<stop offset="0.996436" stop-color="#0D1012"/>
</linearGradient>
<linearGradient id="paint1_linear_55_292" x1="327.109" y1="347.62" x2="327.109" y2="355.123" gradientUnits="userSpaceOnUse">
<stop stop-color="#7A7F83"/>
<stop offset="1" stop-color="#0B0B0E"/>
</linearGradient>
<linearGradient id="paint2_linear_55_292" x1="285.532" y1="346.146" x2="371.187" y2="346.146" gradientUnits="userSpaceOnUse">
<stop stop-color="#3C3C3C"/>
<stop offset="0.317518" stop-color="#3C3C3C" stop-opacity="0"/>
<stop offset="0.660584" stop-color="#3C3C3C" stop-opacity="0"/>
<stop offset="1" stop-color="#444444"/>
</linearGradient>
</defs>
</svg>
