<svg xmlns="http://www.w3.org/2000/svg" fill="none" viewBox="0 0 120 138"><path fill="#fff" d="M0 20C0 8.954 8.954 0 20 0h80c11.046 0 20 8.954 20 20v80c0 11.046-8.954 20-20 20H20c-11.046 0-20-8.954-20-20V20z"/><rect width="120" height="120" fill="#FF3B30" rx="10"/><circle r="59.875" stroke="#fff" stroke-width=".25" transform="matrix(-1 0 0 1 60 60)"/><path stroke="#fff" stroke-width=".75" d="M20.375 60c0 21.884 17.74 39.625 39.625 39.625 21.884 0 39.625-17.74 39.625-39.625 0-21.884-17.74-39.625-39.625-39.625-21.884 0-39.625 17.74-39.625 39.625z"/><circle r="29.5" stroke="#fff" transform="matrix(-1 0 0 1 60 60)"/><circle r="20" fill="#fff" transform="matrix(-1 0 0 1 60 60)"/><path stroke="#fff" stroke-width=".5" d="M10.25 60c0 27.476 22.274 49.75 49.75 49.75S109.75 87.476 109.75 60 87.476 10.25 60 10.25 10.25 32.524 10.25 60z"/><path fill="#000" d="M65.845 54.594v-4.04c0-.286-.1-.508-.301-.665a.801.801 0 0 0-.709-.162l-5.521 1.204c-.71.157-1.064.533-1.064 1.128l.022 11.945c.057.544-.165.866-.666.967l-1.709.354c-1.074.23-1.869.612-2.384 1.15-.516.537-.774 1.21-.774 2.02 0 .823.283 1.492.849 2.008.573.523 1.307.784 2.202.784.394 0 .816-.079 1.268-.236a3.88 3.88 0 0 0 1.289-.73c.408-.337.74-.781.999-1.333.258-.544.386-1.206.386-1.987v-9.83c0-.278.036-.465.108-.558.079-.1.247-.179.505-.236l4.909-1.074a.806.806 0 0 0 .43-.247.698.698 0 0 0 .16-.462z"/><path fill="#fff" d="M15.86 135v-8.727h1.582v3.694h4.044v-3.694h1.585V135h-1.585v-3.707h-4.044V135H15.86zm10.746.132c-.415 0-.789-.074-1.12-.221a1.836 1.836 0 0 1-.785-.665c-.19-.293-.285-.654-.285-1.083 0-.369.068-.674.204-.916.136-.241.322-.435.558-.579.236-.145.502-.255.797-.329.298-.076.607-.132.925-.166.383-.039.695-.075.933-.106.239-.034.412-.085.52-.154.11-.071.166-.18.166-.328v-.025c0-.321-.095-.57-.285-.746-.19-.176-.465-.264-.823-.264-.378 0-.677.082-.899.247a1.225 1.225 0 0 0-.443.584l-1.44-.205c.113-.398.3-.73.562-.997.261-.27.581-.472.959-.605a3.676 3.676 0 0 1 1.253-.205c.315 0 .629.037.942.111.312.074.598.196.856.367.258.167.466.396.622.686.16.289.239.652.239 1.086V135h-1.483v-.899h-.051a1.88 1.88 0 0 1-.397.511 1.9 1.9 0 0 1-.635.379c-.252.094-.55.141-.89.141zm.4-1.133c.31 0 .578-.062.806-.184a1.35 1.35 0 0 0 .524-.494c.125-.205.187-.428.187-.669v-.771a.74.74 0 0 1-.247.11 3.392 3.392 0 0 1-.383.09c-.142.026-.283.048-.422.068l-.362.051c-.23.032-.436.083-.618.154s-.325.17-.43.298a.73.73 0 0 0-.158.486c0 .284.103.498.31.643.208.145.472.218.793.218zm4.607 3.456v-9h1.517v1.082h.09a2.84 2.84 0 0 1 .336-.507c.145-.182.341-.337.588-.465.247-.13.563-.196.946-.196.506 0 .962.13 1.368.388.41.256.733.635.972 1.138.241.5.362 1.114.362 1.841 0 .719-.118 1.329-.354 1.832-.236.503-.557.887-.963 1.151a2.478 2.478 0 0 1-1.38.396c-.376 0-.687-.062-.934-.187a1.902 1.902 0 0 1-.596-.452 2.924 2.924 0 0 1-.346-.507h-.063v3.486h-1.543zm1.513-5.728c0 .424.06.794.179 1.112.122.319.297.567.524.746.23.176.508.264.835.264.341 0 .627-.09.857-.272.23-.185.403-.436.52-.755.119-.321.178-.686.178-1.095 0-.406-.058-.767-.174-1.082a1.628 1.628 0 0 0-.52-.742c-.23-.179-.517-.268-.86-.268-.33 0-.61.087-.84.26-.23.173-.405.416-.525.729-.116.312-.174.68-.174 1.103zm9.255-3.272v1.193H38.62v-1.193h3.762zm-2.833-1.569h1.542v6.145c0 .208.031.367.094.478a.51.51 0 0 0 .256.221c.105.04.221.06.35.06.096 0 .184-.007.263-.022.083-.014.145-.027.188-.038l.26 1.206c-.083.028-.2.06-.354.094-.15.034-.335.054-.554.059a2.503 2.503 0 0 1-1.044-.174 1.63 1.63 0 0 1-.737-.605c-.18-.273-.267-.614-.264-1.023v-6.401zM43.67 135v-6.545h1.543V135h-1.542zm.776-7.474a.9.9 0 0 1-.63-.243.785.785 0 0 1-.265-.593c0-.233.088-.43.264-.592a.89.89 0 0 1 .631-.247.88.88 0 0 1 .63.247.774.774 0 0 1 .265.592c0 .23-.088.428-.264.593a.89.89 0 0 1-.63.243zm5.209 7.602c-.654 0-1.215-.144-1.684-.431a2.87 2.87 0 0 1-1.078-1.188c-.25-.509-.375-1.094-.375-1.756 0-.665.128-1.252.384-1.76a2.864 2.864 0 0 1 1.082-1.193c.469-.287 1.023-.431 1.662-.431.531 0 1.001.098 1.41.294.412.194.74.468.985.823.244.352.383.764.417 1.236h-1.474a1.408 1.408 0 0 0-.426-.789c-.222-.213-.518-.319-.89-.319-.316 0-.593.085-.832.255a1.637 1.637 0 0 0-.558.725c-.13.315-.196.693-.196 1.133 0 .446.065.83.196 1.151.13.318.314.564.55.737.239.171.518.256.84.256.227 0 .43-.043.609-.128.181-.088.334-.215.456-.379.122-.165.206-.365.251-.601h1.474a2.569 2.569 0 0 1-.409 1.231 2.427 2.427 0 0 1-.963.836c-.406.198-.883.298-1.431.298zm2.864-7.53v-1.325h6.963v1.325h-2.697V135h-1.568v-7.402H52.52zM60.078 135v-6.545h1.495v1.09h.069c.119-.377.324-.669.613-.873a1.685 1.685 0 0 1 1.002-.311c.085 0 .18.004.285.013.108.005.198.015.269.029v1.419a1.688 1.688 0 0 0-.311-.059c-.14-.02-.275-.03-.405-.03-.281 0-.534.061-.759.183a1.348 1.348 0 0 0-.716 1.236V135h-1.542zm7.343.128c-.639 0-1.193-.141-1.662-.422a2.867 2.867 0 0 1-1.09-1.18c-.256-.506-.384-1.097-.384-1.773 0-.676.128-1.269.383-1.777a2.856 2.856 0 0 1 1.091-1.185c.469-.281 1.023-.422 1.662-.422.64 0 1.193.141 1.662.422.469.281.831.676 1.087 1.185.258.508.388 1.101.388 1.777 0 .676-.13 1.267-.388 1.773a2.838 2.838 0 0 1-1.087 1.18c-.469.281-1.023.422-1.662.422zm.009-1.236c.346 0 .636-.095.869-.285.233-.194.406-.452.52-.776.116-.324.175-.685.175-1.082 0-.401-.059-.763-.175-1.087a1.717 1.717 0 0 0-.52-.78c-.233-.193-.523-.29-.87-.29-.354 0-.65.097-.886.29a1.748 1.748 0 0 0-.524.78c-.114.324-.17.686-.17 1.087 0 .397.056.758.17 1.082.117.324.291.582.524.776.236.19.532.285.887.285zm5.98-2.727V135h-1.543v-6.545h1.474v1.112h.077c.15-.367.39-.658.72-.874.332-.216.743-.324 1.232-.324.451 0 .845.097 1.18.29.338.193.6.473.784.84.188.366.28.811.277 1.333V135h-1.543v-3.929c0-.437-.113-.78-.34-1.027-.225-.247-.536-.371-.934-.371-.27 0-.51.06-.72.179-.207.117-.37.286-.49.507-.116.222-.175.49-.175.806zm8.624 3.963c-.639 0-1.193-.141-1.662-.422a2.867 2.867 0 0 1-1.09-1.18c-.256-.506-.384-1.097-.384-1.773 0-.676.128-1.269.384-1.777a2.856 2.856 0 0 1 1.09-1.185c.47-.281 1.023-.422 1.662-.422.64 0 1.194.141 1.662.422.47.281.831.676 1.087 1.185.258.508.388 1.101.388 1.777 0 .676-.13 1.267-.388 1.773a2.839 2.839 0 0 1-1.087 1.18c-.468.281-1.022.422-1.662.422zm.009-1.236c.347 0 .636-.095.87-.285.232-.194.406-.452.52-.776.116-.324.174-.685.174-1.082 0-.401-.058-.763-.175-1.087a1.719 1.719 0 0 0-.52-.78c-.233-.193-.522-.29-.869-.29-.355 0-.65.097-.886.29a1.747 1.747 0 0 0-.525.78c-.113.324-.17.686-.17 1.087 0 .397.057.758.17 1.082.117.324.292.582.525.776.235.19.53.285.886.285zM86.48 135v-6.545h1.474v1.112h.077c.137-.375.362-.668.678-.878.315-.213.692-.32 1.13-.32.442 0 .816.108 1.12.324.307.213.522.504.647.874h.069a1.79 1.79 0 0 1 .733-.87c.346-.218.757-.328 1.231-.328.603 0 1.094.191 1.475.571.38.381.57.936.57 1.667V135h-1.546v-4.155c0-.406-.108-.703-.324-.89a1.153 1.153 0 0 0-.793-.286c-.372 0-.663.117-.873.349-.208.231-.311.53-.311.9V135h-1.513v-4.219c0-.338-.102-.608-.307-.809-.202-.202-.466-.303-.793-.303-.221 0-.423.057-.605.17a1.194 1.194 0 0 0-.434.473 1.48 1.48 0 0 0-.162.708V135H86.48zm13.667.128c-.656 0-1.223-.137-1.7-.409a2.773 2.773 0 0 1-1.095-1.168c-.256-.506-.384-1.101-.384-1.785 0-.674.128-1.265.384-1.773.258-.511.62-.909 1.082-1.193.463-.287 1.007-.431 1.632-.431.404 0 .784.066 1.142.196.361.128.679.327.955.597.278.27.497.614.656 1.031.159.415.239.909.239 1.483v.473h-5.365v-1.04h3.886a1.66 1.66 0 0 0-.192-.788 1.394 1.394 0 0 0-.524-.55c-.221-.133-.48-.2-.775-.2-.316 0-.593.077-.831.23-.239.151-.425.35-.559.597-.13.244-.197.513-.2.805v.908c0 .38.07.707.209.98.14.27.334.477.584.622.25.142.543.213.878.213.224 0 .427-.031.609-.094.182-.065.34-.16.473-.285.134-.125.234-.28.303-.465l1.44.162a2.24 2.24 0 0 1-.52.997c-.253.282-.577.5-.972.657-.394.153-.846.23-1.355.23z"/></svg>