<svg width="120" height="138" viewBox="0 0 120 138" fill="none" xmlns="http://www.w3.org/2000/svg">
<path d="M0 20C0 8.95431 8.95431 0 20 0H100C111.046 0 120 8.95431 120 20V100C120 111.046 111.046 120 100 120H20C8.95431 120 0 111.046 0 100V20Z" fill="white"/>
<rect width="120" height="120" rx="10" fill="#FF3B30"/>
<circle r="59.875" transform="matrix(-1 0 0 1 60 60)" stroke="white" stroke-width="0.25"/>
<path d="M20.375 60C20.375 81.8843 38.1157 99.625 60 99.625C81.8843 99.625 99.625 81.8843 99.625 60C99.625 38.1157 81.8843 20.375 60 20.375C38.1157 20.375 20.375 38.1157 20.375 60Z" stroke="white" stroke-width="0.75"/>
<circle r="29.5" transform="matrix(-1 0 0 1 60 60)" stroke="white"/>
<circle r="20" transform="matrix(-1 0 0 1 60 60)" fill="white"/>
<path d="M10.25 60C10.25 87.4762 32.5238 109.75 60 109.75C87.4762 109.75 109.75 87.4762 109.75 60C109.75 32.5238 87.4762 10.25 60 10.25C32.5238 10.25 10.25 32.5238 10.25 60Z" stroke="white" stroke-width="0.5"/>
<path d="M65.8447 54.5938V50.5547C65.8447 50.2682 65.7445 50.0462 65.5439 49.8887C65.3434 49.724 65.1071 49.6702 64.835 49.7275L59.3135 50.9307C58.6045 51.0882 58.25 51.4642 58.25 52.0586L58.2715 64.0039C58.3288 64.5482 58.1068 64.8704 57.6055 64.9707L55.8975 65.3252C54.8232 65.5544 54.0283 65.9375 53.5127 66.4746C52.9971 67.0117 52.7393 67.6849 52.7393 68.4941C52.7393 69.3177 53.0221 69.9873 53.5879 70.5029C54.1608 71.0257 54.8949 71.2871 55.79 71.2871C56.1839 71.2871 56.6064 71.2083 57.0576 71.0508C57.516 70.9004 57.9456 70.6569 58.3467 70.3203C58.7549 69.9837 59.0879 69.5397 59.3457 68.9883C59.6035 68.444 59.7324 67.7816 59.7324 67.001V57.1719C59.7324 56.8926 59.7682 56.7064 59.8398 56.6133C59.9186 56.513 60.0869 56.4342 60.3447 56.377L65.2539 55.3027C65.4329 55.2598 65.5762 55.1774 65.6836 55.0557C65.791 54.9268 65.8447 54.7728 65.8447 54.5938Z" fill="black"/>
<path d="M15.8608 135V126.273H17.4418V129.967H21.4858V126.273H23.071V135H21.4858V131.293H17.4418V135H15.8608ZM26.6058 135.132C26.1911 135.132 25.8175 135.058 25.4851 134.911C25.1555 134.76 24.8942 134.538 24.701 134.246C24.5107 133.953 24.4155 133.592 24.4155 133.163C24.4155 132.794 24.4837 132.489 24.62 132.247C24.7564 132.006 24.9425 131.812 25.1783 131.668C25.4141 131.523 25.6797 131.413 25.9751 131.339C26.2734 131.263 26.5817 131.207 26.8999 131.173C27.2834 131.134 27.5945 131.098 27.8331 131.067C28.0717 131.033 28.245 130.982 28.353 130.913C28.4638 130.842 28.5192 130.733 28.5192 130.585V130.56C28.5192 130.239 28.424 129.99 28.2337 129.814C28.0433 129.638 27.7692 129.55 27.4112 129.55C27.0334 129.55 26.7337 129.632 26.5121 129.797C26.2933 129.962 26.1456 130.156 26.0689 130.381L24.6286 130.176C24.7422 129.778 24.9297 129.446 25.1911 129.179C25.4524 128.909 25.772 128.707 26.1499 128.574C26.5277 128.438 26.9453 128.369 27.4027 128.369C27.718 128.369 28.032 128.406 28.3445 128.48C28.657 128.554 28.9425 128.676 29.201 128.847C29.4595 129.014 29.6669 129.243 29.8232 129.533C29.9822 129.822 30.0618 130.185 30.0618 130.619V135H28.5788V134.101H28.5277C28.4339 134.283 28.3018 134.453 28.1314 134.612C27.9638 134.768 27.7521 134.895 27.4964 134.991C27.2436 135.085 26.9467 135.132 26.6058 135.132ZM27.0064 133.999C27.3161 133.999 27.5845 133.937 27.8118 133.815C28.0391 133.69 28.2138 133.526 28.3359 133.321C28.4609 133.116 28.5234 132.893 28.5234 132.652V131.881C28.4751 131.92 28.3928 131.957 28.2763 131.991C28.1626 132.026 28.0348 132.055 27.8928 132.081C27.7507 132.107 27.6101 132.129 27.4709 132.149C27.3317 132.169 27.2109 132.186 27.1087 132.2C26.8786 132.232 26.6726 132.283 26.4908 132.354C26.3089 132.425 26.1655 132.524 26.0604 132.652C25.9553 132.777 25.9027 132.939 25.9027 133.138C25.9027 133.422 26.0064 133.636 26.2138 133.781C26.4212 133.926 26.6854 133.999 27.0064 133.999ZM31.6129 137.455V128.455H33.13V129.537H33.2195C33.299 129.378 33.4112 129.209 33.5561 129.03C33.701 128.848 33.897 128.693 34.1442 128.565C34.3913 128.435 34.7067 128.369 35.0902 128.369C35.5959 128.369 36.0518 128.499 36.4581 128.757C36.8672 129.013 37.1911 129.392 37.4297 129.895C37.6712 130.395 37.7919 131.009 37.7919 131.736C37.7919 132.455 37.674 133.065 37.4382 133.568C37.2024 134.071 36.8814 134.455 36.4751 134.719C36.0689 134.983 35.6087 135.115 35.0945 135.115C34.7195 135.115 34.4084 135.053 34.1612 134.928C33.9141 134.803 33.7152 134.652 33.5646 134.476C33.4169 134.297 33.3018 134.128 33.2195 133.969H33.1555V137.455H31.6129ZM33.1257 131.727C33.1257 132.151 33.1854 132.521 33.3047 132.839C33.4268 133.158 33.6016 133.406 33.8288 133.585C34.0589 133.761 34.3374 133.849 34.6641 133.849C35.005 133.849 35.2905 133.759 35.5206 133.577C35.7507 133.392 35.924 133.141 36.0405 132.822C36.1598 132.501 36.2195 132.136 36.2195 131.727C36.2195 131.321 36.1612 130.96 36.0447 130.645C35.9283 130.33 35.755 130.082 35.5249 129.903C35.2947 129.724 35.0078 129.635 34.6641 129.635C34.3345 129.635 34.0547 129.722 33.8246 129.895C33.5945 130.068 33.4197 130.311 33.3004 130.624C33.1839 130.936 33.1257 131.304 33.1257 131.727ZM42.3814 128.455V129.648H38.6186V128.455H42.3814ZM39.5476 126.886H41.0902V133.031C41.0902 133.239 41.1214 133.398 41.1839 133.509C41.2493 133.616 41.3345 133.69 41.4396 133.73C41.5447 133.77 41.6612 133.79 41.7891 133.79C41.8857 133.79 41.9737 133.783 42.0533 133.768C42.1357 133.754 42.1982 133.741 42.2408 133.73L42.5007 134.936C42.4183 134.964 42.3004 134.996 42.147 135.03C41.9964 135.064 41.8118 135.084 41.593 135.089C41.2067 135.101 40.8587 135.043 40.549 134.915C40.2393 134.784 39.9936 134.582 39.8118 134.31C39.6328 134.037 39.5447 133.696 39.5476 133.287V126.886ZM43.6715 135V128.455H45.2141V135H43.6715ZM44.4471 127.526C44.2028 127.526 43.9925 127.445 43.8164 127.283C43.6403 127.118 43.5522 126.92 43.5522 126.69C43.5522 126.457 43.6403 126.26 43.8164 126.098C43.9925 125.933 44.2028 125.851 44.4471 125.851C44.6942 125.851 44.9045 125.933 45.0778 126.098C45.2539 126.26 45.342 126.457 45.342 126.69C45.342 126.92 45.2539 127.118 45.0778 127.283C44.9045 127.445 44.6942 127.526 44.4471 127.526ZM49.6555 135.128C49.0021 135.128 48.4411 134.984 47.9723 134.697C47.5064 134.411 47.147 134.014 46.8942 133.509C46.6442 133 46.5192 132.415 46.5192 131.753C46.5192 131.088 46.647 130.501 46.9027 129.993C47.1584 129.482 47.5192 129.084 47.9851 128.8C48.4538 128.513 49.0078 128.369 49.647 128.369C50.1783 128.369 50.6484 128.467 51.0575 128.663C51.4695 128.857 51.7976 129.131 52.0419 129.486C52.2862 129.838 52.4254 130.25 52.4595 130.722H50.9851C50.9254 130.406 50.7834 130.143 50.5589 129.933C50.3374 129.72 50.0405 129.614 49.6683 129.614C49.353 129.614 49.076 129.699 48.8374 129.869C48.5987 130.037 48.4126 130.278 48.2791 130.594C48.1484 130.909 48.0831 131.287 48.0831 131.727C48.0831 132.173 48.1484 132.557 48.2791 132.878C48.4098 133.196 48.593 133.442 48.8288 133.615C49.0675 133.786 49.3473 133.871 49.6683 133.871C49.8956 133.871 50.0987 133.828 50.2777 133.743C50.4595 133.655 50.6115 133.528 50.7337 133.364C50.8558 133.199 50.9396 132.999 50.9851 132.763H52.4595C52.4226 133.226 52.2862 133.636 52.0504 133.994C51.8146 134.349 51.4936 134.628 51.0874 134.83C50.6811 135.028 50.2038 135.128 49.6555 135.128ZM52.5202 127.598V126.273H59.4833V127.598H56.7859V135H55.2177V127.598H52.5202ZM60.0778 135V128.455H61.5735V129.545H61.6417C61.761 129.168 61.9656 128.876 62.2553 128.672C62.5479 128.464 62.8817 128.361 63.2567 128.361C63.342 128.361 63.4371 128.365 63.5423 128.374C63.6502 128.379 63.7397 128.389 63.8107 128.403V129.822C63.7454 129.8 63.6417 129.78 63.4996 129.763C63.3604 129.743 63.2255 129.733 63.0948 129.733C62.8136 129.733 62.5607 129.794 62.3363 129.916C62.1147 130.036 61.94 130.202 61.8121 130.415C61.6843 130.628 61.6204 130.874 61.6204 131.152V135H60.0778ZM67.4212 135.128C66.782 135.128 66.228 134.987 65.7592 134.706C65.2905 134.425 64.9268 134.031 64.6683 133.526C64.4126 133.02 64.2848 132.429 64.2848 131.753C64.2848 131.077 64.4126 130.484 64.6683 129.976C64.9268 129.467 65.2905 129.072 65.7592 128.791C66.228 128.51 66.782 128.369 67.4212 128.369C68.0604 128.369 68.6143 128.51 69.0831 128.791C69.5518 129.072 69.9141 129.467 70.1697 129.976C70.4283 130.484 70.5575 131.077 70.5575 131.753C70.5575 132.429 70.4283 133.02 70.1697 133.526C69.9141 134.031 69.5518 134.425 69.0831 134.706C68.6143 134.987 68.0604 135.128 67.4212 135.128ZM67.4297 133.892C67.7763 133.892 68.0661 133.797 68.299 133.607C68.532 133.413 68.7053 133.155 68.8189 132.831C68.9354 132.507 68.9936 132.146 68.9936 131.749C68.9936 131.348 68.9354 130.986 68.8189 130.662C68.7053 130.335 68.532 130.075 68.299 129.882C68.0661 129.689 67.7763 129.592 67.4297 129.592C67.0746 129.592 66.7791 129.689 66.5433 129.882C66.3104 130.075 66.1357 130.335 66.0192 130.662C65.9055 130.986 65.8487 131.348 65.8487 131.749C65.8487 132.146 65.9055 132.507 66.0192 132.831C66.1357 133.155 66.3104 133.413 66.5433 133.607C66.7791 133.797 67.0746 133.892 67.4297 133.892ZM73.4094 131.165V135H71.8668V128.455H73.3413V129.567H73.418C73.5685 129.2 73.8086 128.909 74.1381 128.693C74.4705 128.477 74.881 128.369 75.3697 128.369C75.8214 128.369 76.2148 128.466 76.5501 128.659C76.8881 128.852 77.1495 129.132 77.3342 129.499C77.5217 129.865 77.614 130.31 77.6112 130.832V135H76.0685V131.071C76.0685 130.634 75.9549 130.291 75.7276 130.044C75.5032 129.797 75.1921 129.673 74.7944 129.673C74.5245 129.673 74.2844 129.733 74.0742 129.852C73.8668 129.969 73.7035 130.138 73.5842 130.359C73.4677 130.581 73.4094 130.849 73.4094 131.165ZM82.0344 135.128C81.3952 135.128 80.8413 134.987 80.3725 134.706C79.9038 134.425 79.5401 134.031 79.2816 133.526C79.0259 133.02 78.8981 132.429 78.8981 131.753C78.8981 131.077 79.0259 130.484 79.2816 129.976C79.5401 129.467 79.9038 129.072 80.3725 128.791C80.8413 128.51 81.3952 128.369 82.0344 128.369C82.6737 128.369 83.2276 128.51 83.6964 128.791C84.1651 129.072 84.5273 129.467 84.783 129.976C85.0415 130.484 85.1708 131.077 85.1708 131.753C85.1708 132.429 85.0415 133.02 84.783 133.526C84.5273 134.031 84.1651 134.425 83.6964 134.706C83.2276 134.987 82.6737 135.128 82.0344 135.128ZM82.043 133.892C82.3896 133.892 82.6793 133.797 82.9123 133.607C83.1452 133.413 83.3185 133.155 83.4322 132.831C83.5487 132.507 83.6069 132.146 83.6069 131.749C83.6069 131.348 83.5487 130.986 83.4322 130.662C83.3185 130.335 83.1452 130.075 82.9123 129.882C82.6793 129.689 82.3896 129.592 82.043 129.592C81.6879 129.592 81.3924 129.689 81.1566 129.882C80.9237 130.075 80.7489 130.335 80.6325 130.662C80.5188 130.986 80.462 131.348 80.462 131.749C80.462 132.146 80.5188 132.507 80.6325 132.831C80.7489 133.155 80.9237 133.413 81.1566 133.607C81.3924 133.797 81.6879 133.892 82.043 133.892ZM86.4801 135V128.455H87.9545V129.567H88.0312C88.1676 129.192 88.3935 128.899 88.7088 128.689C89.0241 128.476 89.4006 128.369 89.8381 128.369C90.2812 128.369 90.6548 128.477 90.9588 128.693C91.2656 128.906 91.4815 129.197 91.6065 129.567H91.6747C91.8196 129.203 92.0639 128.913 92.4077 128.697C92.7543 128.479 93.1648 128.369 93.6392 128.369C94.2415 128.369 94.733 128.56 95.1136 128.94C95.4943 129.321 95.6847 129.876 95.6847 130.607V135H94.1378V130.845C94.1378 130.439 94.0298 130.142 93.8139 129.955C93.598 129.764 93.3338 129.669 93.0213 129.669C92.6491 129.669 92.358 129.786 92.1477 130.018C91.9403 130.249 91.8366 130.548 91.8366 130.918V135H90.3239V130.781C90.3239 130.443 90.2216 130.173 90.017 129.972C89.8153 129.77 89.5511 129.669 89.2244 129.669C89.0028 129.669 88.8011 129.726 88.6193 129.839C88.4375 129.95 88.2926 130.108 88.1847 130.312C88.0767 130.514 88.0227 130.75 88.0227 131.02V135H86.4801ZM100.147 135.128C99.4911 135.128 98.9244 134.991 98.4471 134.719C97.9727 134.443 97.6076 134.054 97.3519 133.551C97.0962 133.045 96.9684 132.45 96.9684 131.766C96.9684 131.092 97.0962 130.501 97.3519 129.993C97.6104 129.482 97.9712 129.084 98.4343 128.8C98.8974 128.513 99.4414 128.369 100.066 128.369C100.47 128.369 100.85 128.435 101.208 128.565C101.569 128.693 101.887 128.892 102.163 129.162C102.441 129.432 102.66 129.776 102.819 130.193C102.978 130.608 103.058 131.102 103.058 131.676V132.149H97.6928V131.109H101.579C101.576 130.814 101.512 130.551 101.387 130.321C101.262 130.088 101.088 129.905 100.863 129.771C100.642 129.638 100.383 129.571 100.088 129.571C99.7724 129.571 99.4954 129.648 99.2567 129.801C99.0181 129.952 98.832 130.151 98.6985 130.398C98.5678 130.642 98.5011 130.911 98.4982 131.203V132.111C98.4982 132.491 98.5678 132.818 98.707 133.091C98.8462 133.361 99.0408 133.568 99.2908 133.713C99.5408 133.855 99.8335 133.926 100.169 133.926C100.393 133.926 100.596 133.895 100.778 133.832C100.96 133.767 101.118 133.672 101.251 133.547C101.385 133.422 101.485 133.267 101.554 133.082L102.994 133.244C102.903 133.625 102.73 133.957 102.474 134.241C102.221 134.523 101.897 134.741 101.502 134.898C101.108 135.051 100.656 135.128 100.147 135.128Z" fill="white"/>
</svg>
