<svg xmlns="http://www.w3.org/2000/svg" fill="none" viewBox="0 0 382 275"><mask id="a" style="mask-type:alpha" width="382" height="275" x="0" y="0" maskUnits="userSpaceOnUse"><path fill="#fff" d="M0 0h382v275H0V0z"/></mask><g mask="url(#a)"><path stroke="#fff" stroke-linecap="square" stroke-miterlimit="3" stroke-width="8" d="M0 0h382v275H0V0z"/><path fill="#fff" d="M180.53 27.713c-5.633 1.058-10.97 4.526-14.143 9.224-1.058 1.55-3.075 5.608-2.903 5.805.074.049 1.205.369 2.558.713 2.878.713 7.551 2.976 9.937 4.772 2.263 1.697 5.436 5.067 6.912 7.329.688 1.058 1.328 1.919 1.451 1.919s.762-.861 1.451-1.894c1.574-2.435 4.526-5.534 7.01-7.38 2.632-1.967 6.813-3.983 9.839-4.746 1.353-.344 2.509-.664 2.558-.738.295-.27-2.534-5.362-3.96-7.133-5.018-6.247-13.11-9.297-20.71-7.871zM226.992 27.787c-1.205.64-14.364 14.168-14.143 14.512.099.172 1.181.467 2.386.664 1.23.197 2.952.59 3.886.86l1.648.518 5.338-5.461c2.927-3.001 5.534-5.78 5.755-6.223 1.648-3.001-1.869-6.518-4.87-4.87zM154.482 50.096c-3.739.787-7.01 2.288-9.912 4.6-4.477 3.566-7.601 9.494-8.117 15.372l-.148 1.796h44.421l-.172-1.845c-.861-9.396-7.428-17.168-16.504-19.58-2.558-.663-7.182-.835-9.568-.343zM206.134 50.096c-3.738.787-7.01 2.288-9.912 4.6-4.477 3.566-7.6 9.494-8.117 15.372l-.147 1.796h2.361c4.304 0 6.739.885 9.174 3.296 1.599 1.623 2.583 3.394 3.026 5.509.172.812.27 4.428.27 9.544 0 7.772.025 8.289.492 9.199.566 1.107 1.968 1.968 3.198 1.968s2.632-.861 3.197-1.968c.468-.91.492-1.427.492-9.2 0-5.115.099-8.731.271-9.543.885-4.206 4.304-7.624 8.535-8.535.762-.147 3.763-.27 7.354-.27h6.051l-.172-1.845c-.861-9.396-7.429-17.168-16.505-19.58-2.558-.663-7.182-.835-9.568-.343z"/><path fill="#fff" d="M134.042 79.686c-1.599.54-2.681 1.328-3.591 2.582-1.082 1.476-1.451 3.075-1.451 6.125 0 3.222.418 4.329 1.968 5.116.959.492 1.377.492 32.713.492h31.729v-5.903c0-5.461-.049-6.002-.492-6.887a3.292 3.292 0 0 0-1.475-1.476c-.96-.492-1.378-.492-29.565-.492-26.515.024-28.704.049-29.836.443zM219.466 79.735c-.566.295-1.132.885-1.427 1.476-.443.885-.492 1.426-.492 6.887V94h9.593c9.15 0 9.666-.025 10.576-.492a3.345 3.345 0 0 0 1.501-1.525c.467-.91.516-1.328.418-4.108-.074-2.804-.148-3.247-.763-4.501-.787-1.574-1.967-2.73-3.591-3.493-1.057-.492-1.599-.516-8.018-.565-6.494-.074-6.936-.05-7.797.418zM137.855 101.749c0 .688 1.771 5.878 2.828 8.239 2.829 6.395 8.166 13.356 13.627 17.759 14.487 11.708 33.844 14.045 50.422 6.075 5.436-2.607 9.79-5.78 14.07-10.256 5.214-5.461 8.83-11.512 11.142-18.669.492-1.525.885-2.927.885-3.148 0-.32-.91-.369-6.961-.369h-6.985l-.59 1.279c-1.599 3.443-5.879 6.1-9.814 6.1-3.936 0-8.215-2.657-9.814-6.1l-.591-1.279h-29.122c-25.851 0-29.097.049-29.097.369zM333.381 32.682V137.62h-12.202V88.237H265.91v49.383h-12.202V32.682h12.202v44.645h55.269V32.682h12.202zM80.94 78.26l43.784 59.36h-14.355L72.111 86.73l-10.982 9.762v41.128H48.927V32.682h12.202V84.72l47.589-52.038h14.427L80.94 78.26zM56.876 210.547v36.01h-9.795v-84.236H94.04v8.7H56.876v30.825h34.916v8.701H56.876zm78.475.979h-17.574v35.031h-9.795v-84.236h23.105c10.333 0 17.967 1.978 22.903 5.935 4.936 3.956 7.404 9.91 7.404 17.861 0 11.139-5.647 18.668-16.94 22.586l22.874 37.854h-11.581l-20.396-35.031zm-17.574-40.62v32.208h13.425c6.914 0 11.984-1.373 15.211-4.12 3.227-2.746 4.84-6.865 4.84-12.358 0-5.57-1.642-9.584-4.926-12.042-3.285-2.459-8.557-3.688-15.816-3.688h-12.734zm126.24 75.651h-10.141l-10.486-26.792h-33.764l-10.371 26.792h-9.91l33.302-84.582h8.24l33.13 84.582zm-50.934-35.607h27.253l-9.795-26.101c-1.267-3.303-2.573-7.356-3.918-12.157-.845 3.687-2.055 7.74-3.63 12.157l-9.91 26.101zm72.31 35.607h-9.795v-84.236h9.795v84.236zm70.638-22.413c0 7.413-2.689 13.194-8.066 17.343-5.378 4.149-12.676 6.223-21.895 6.223-9.987 0-17.669-1.287-23.047-3.861V234.4c3.457 1.46 7.222 2.612 11.293 3.457 4.072.845 8.105 1.268 12.1 1.268 6.53 0 11.447-1.239 14.75-3.717 3.303-2.477 4.955-5.925 4.955-10.342 0-2.919-.586-5.31-1.757-7.173-1.172-1.863-3.131-3.582-5.877-5.157-2.747-1.575-6.924-3.361-12.532-5.358-7.836-2.804-13.434-6.127-16.795-9.968-3.361-3.841-5.042-8.854-5.042-15.038 0-6.491 2.439-11.658 7.318-15.499 4.878-3.841 11.331-5.762 19.359-5.762 8.373 0 16.075 1.536 23.104 4.609l-3.053 8.528c-6.953-2.919-13.713-4.379-20.282-4.379-5.185 0-9.238 1.114-12.157 3.342-2.919 2.228-4.379 5.32-4.379 9.276 0 2.919.538 5.31 1.614 7.173 1.075 1.863 2.89 3.573 5.444 5.128 2.555 1.556 6.463 3.275 11.726 5.157 8.834 3.15 14.912 6.53 18.235 10.141 3.323 3.611 4.984 8.297 4.984 14.058z"/></g></svg>