<svg width="382" height="275" viewBox="0 0 382 275" fill="none" xmlns="http://www.w3.org/2000/svg">
<mask id="mask0_65_199" style="mask-type:alpha" maskUnits="userSpaceOnUse" x="0" y="0" width="382" height="275">
<path d="M0 0H382V275H0V0Z" fill="white"/>
</mask>
<g mask="url(#mask0_65_199)">
<path d="M0 0H382V275H0V0Z" stroke="white" stroke-width="8" stroke-miterlimit="3" stroke-linecap="square"/>
<path d="M180.53 27.7128C174.897 28.7708 169.56 32.2388 166.387 36.9368C165.329 38.4868 163.312 42.5448 163.484 42.7418C163.558 42.7908 164.689 43.1108 166.042 43.4548C168.92 44.1678 173.593 46.4308 175.979 48.2268C178.242 49.9238 181.415 53.2938 182.891 55.5558C183.579 56.6138 184.219 57.4748 184.342 57.4748C184.465 57.4748 185.104 56.6138 185.793 55.5808C187.367 53.1458 190.319 50.0468 192.803 48.2018C195.435 46.2338 199.616 44.2178 202.642 43.4548C203.995 43.1108 205.151 42.7908 205.2 42.7168C205.495 42.4468 202.666 37.3548 201.24 35.5838C196.222 29.3368 188.13 26.2868 180.53 27.7128Z" fill="white"/>
<path d="M226.992 27.7869C225.787 28.4269 212.628 41.9549 212.849 42.2989C212.948 42.4709 214.03 42.7659 215.235 42.9629C216.465 43.1599 218.187 43.5529 219.121 43.8239L220.769 44.3409L226.107 38.8799C229.034 35.8789 231.641 33.0999 231.862 32.6569C233.51 29.6559 229.993 26.1389 226.992 27.7869Z" fill="white"/>
<path d="M154.482 50.0958C150.743 50.8828 147.472 52.3838 144.57 54.6958C140.093 58.2618 136.969 64.1898 136.453 70.0678L136.305 71.8638H158.516H180.726L180.554 70.0189C179.693 60.6229 173.126 52.8508 164.05 50.4398C161.492 49.7758 156.868 49.6038 154.482 50.0958Z" fill="white"/>
<path d="M206.134 50.0958C202.396 50.8828 199.124 52.3838 196.222 54.6958C191.745 58.2618 188.622 64.1898 188.105 70.0678L187.958 71.8638H190.319C194.623 71.8638 197.058 72.7488 199.493 75.1598C201.092 76.7828 202.076 78.5538 202.519 80.6688C202.691 81.4808 202.789 85.0968 202.789 90.2128C202.789 97.9848 202.814 98.5018 203.281 99.4118C203.847 100.519 205.249 101.38 206.479 101.38C207.709 101.38 209.111 100.519 209.676 99.4118C210.144 98.5018 210.168 97.9848 210.168 90.2128C210.168 85.0968 210.267 81.4808 210.439 80.6688C211.324 76.4628 214.743 73.0448 218.974 72.1338C219.736 71.9868 222.737 71.8638 226.328 71.8638H232.379L232.207 70.0189C231.346 60.6229 224.778 52.8508 215.702 50.4398C213.144 49.7758 208.52 49.6038 206.134 50.0958Z" fill="white"/>
<path d="M134.042 79.6859C132.443 80.2269 131.361 81.0139 130.451 82.2679C129.369 83.7439 129 85.3429 129 88.3929C129 91.6149 129.418 92.7219 130.968 93.5089C131.927 94.0009 132.345 94.0009 163.681 94.0009H195.41V88.0979C195.41 82.6369 195.361 82.0959 194.918 81.2109C194.599 80.5709 194.082 80.0549 193.443 79.7349C192.483 79.2429 192.065 79.2429 163.878 79.2429C137.363 79.2669 135.174 79.2919 134.042 79.6859Z" fill="white"/>
<path d="M219.466 79.7349C218.9 80.0299 218.334 80.6199 218.039 81.2109C217.596 82.0959 217.547 82.6369 217.547 88.0979V94.0009H227.14C236.29 94.0009 236.806 93.9759 237.716 93.5089C238.356 93.1889 238.872 92.6719 239.217 91.9839C239.684 91.0739 239.733 90.6559 239.635 87.8759C239.561 85.0719 239.487 84.6289 238.872 83.3749C238.085 81.8009 236.905 80.6449 235.281 79.8819C234.224 79.3899 233.682 79.3659 227.263 79.3169C220.769 79.2429 220.327 79.2669 219.466 79.7349Z" fill="white"/>
<path d="M137.855 101.749C137.855 102.437 139.626 107.627 140.683 109.988C143.512 116.383 148.849 123.344 154.31 127.747C168.797 139.455 188.154 141.792 204.732 133.822C210.168 131.215 214.522 128.042 218.802 123.566C224.016 118.105 227.632 112.054 229.944 104.897C230.436 103.372 230.829 101.97 230.829 101.749C230.829 101.429 229.919 101.38 223.868 101.38H216.883L216.293 102.659C214.694 106.102 210.414 108.759 206.479 108.759C202.543 108.759 198.264 106.102 196.665 102.659L196.074 101.38H166.952C141.101 101.38 137.855 101.429 137.855 101.749Z" fill="white"/>
<path d="M333.381 32.6821V137.62H321.179V88.2371H265.91V137.62H253.708V32.6821H265.91V77.3271H321.179V32.6821H333.381ZM80.94 78.2601L124.724 137.62H110.369L72.111 86.7301L61.129 96.4921V137.62H48.927V32.6821H61.129V84.7201L108.718 32.6821H123.145L80.94 78.2601Z" fill="white"/>
<path d="M56.876 210.547V246.557H47.0811V162.321H94.0391V171.021H56.876V201.846H91.7921V210.547H56.876ZM135.351 211.526H117.777V246.557H107.982V162.321H131.087C141.42 162.321 149.054 164.299 153.99 168.256C158.926 172.212 161.394 178.166 161.394 186.117C161.394 197.256 155.747 204.785 144.454 208.703L167.328 246.557H155.747L135.351 211.526ZM117.777 170.906V203.114H131.202C138.116 203.114 143.186 201.741 146.413 198.994C149.64 196.248 151.253 192.129 151.253 186.636C151.253 181.066 149.611 177.052 146.327 174.594C143.042 172.135 137.77 170.906 130.511 170.906H117.777ZM244.017 246.557H233.876L223.39 219.765H189.626L179.255 246.557H169.345L202.647 161.975H210.887L244.017 246.557ZM193.083 210.95H220.336L210.541 184.849C209.274 181.546 207.968 177.493 206.623 172.692C205.778 176.379 204.568 180.432 202.993 184.849L193.083 210.95ZM265.393 246.557H255.598V162.321H265.393V246.557ZM336.031 224.144C336.031 231.557 333.342 237.338 327.965 241.487C322.587 245.636 315.289 247.71 306.07 247.71C296.083 247.71 288.401 246.423 283.023 243.849V234.4C286.48 235.86 290.245 237.012 294.316 237.857C298.388 238.702 302.421 239.125 306.416 239.125C312.946 239.125 317.863 237.886 321.166 235.408C324.469 232.931 326.121 229.483 326.121 225.066C326.121 222.147 325.535 219.756 324.364 217.893C323.192 216.03 321.233 214.311 318.487 212.736C315.74 211.161 311.563 209.375 305.955 207.378C298.119 204.574 292.521 201.251 289.16 197.41C285.799 193.569 284.118 188.556 284.118 182.372C284.118 175.881 286.557 170.714 291.436 166.873C296.314 163.032 302.767 161.111 310.795 161.111C319.168 161.111 326.87 162.647 333.899 165.72L330.846 174.248C323.893 171.329 317.133 169.869 310.564 169.869C305.379 169.869 301.326 170.983 298.407 173.211C295.488 175.439 294.028 178.531 294.028 182.487C294.028 185.406 294.566 187.797 295.642 189.66C296.717 191.523 298.532 193.233 301.086 194.788C303.641 196.344 307.549 198.063 312.812 199.945C321.646 203.095 327.724 206.475 331.047 210.086C334.37 213.697 336.031 218.383 336.031 224.144Z" fill="white"/>
</g>
</svg>
